<svg width="1017" height="800" xmlns="http://www.w3.org/2000/svg" xmlns:xlink="http://www.w3.org/1999/xlink" overflow="hidden"><defs><clipPath id="clip0"><rect x="171" y="104" width="1017" height="800"/></clipPath></defs><g clip-path="url(#clip0)" transform="translate(-171 -104)"><rect x="173" y="106" width="291" height="486" stroke="#000000" stroke-width="2" stroke-miterlimit="8" fill="#FFFFFF"/><text font-family="Calibri,Calibri_MSFontService,sans-serif" font-weight="400" font-size="24" transform="translate(265.341 140)">Identity A<tspan font-size="24" x="-53.18" y="29">Signature Specs (Sig)</tspan></text><rect x="186" y="195" width="265" height="118" stroke="#000000" stroke-width="2" stroke-miterlimit="8" fill="#FFFFFF"/><text font-family="Calibri,Calibri_MSFontService,sans-serif" font-weight="400" font-size="24" transform="translate(199.941 261)">Master</text><rect x="296" y="206" width="142" height="27" stroke="#000000" stroke-width="2" stroke-miterlimit="8" fill="#FFFFFF"/><text font-family="Calibri,Calibri_MSFontService,sans-serif" font-weight="400" font-size="19" transform="translate(308.663 225)">Sig Root Hash 1</text><rect x="296" y="239" width="142" height="27" stroke="#000000" stroke-width="2" stroke-miterlimit="8" fill="#FFFFFF"/><text font-family="Calibri,Calibri_MSFontService,sans-serif" font-weight="400" font-size="19" transform="translate(308.662 258)">Sig Root Hash 2</text><rect x="297" y="275" width="142" height="27" stroke="#000000" stroke-width="2" stroke-miterlimit="8" fill="#FFFFFF"/><text font-family="Calibri,Calibri_MSFontService,sans-serif" font-weight="400" font-size="19" transform="translate(309.138 294)">Sig Root Hash 3</text><rect x="186" y="327" width="265" height="118" stroke="#000000" stroke-width="2" stroke-miterlimit="8" fill="#FFFFFF"/><text font-family="Calibri,Calibri_MSFontService,sans-serif" font-weight="400" font-size="24" transform="translate(199.941 393)">Group A</text><rect x="296" y="337" width="142" height="28" stroke="#000000" stroke-width="2" stroke-miterlimit="8" fill="#FFFFFF"/><text font-family="Calibri,Calibri_MSFontService,sans-serif" font-weight="400" font-size="19" transform="translate(308.663 357)">Sig Root Hash 1</text><rect x="296" y="371" width="142" height="27" stroke="#000000" stroke-width="2" stroke-miterlimit="8" fill="#FFFFFF"/><text font-family="Calibri,Calibri_MSFontService,sans-serif" font-weight="400" font-size="19" transform="translate(308.662 390)">Sig Root Hash 2</text><rect x="297" y="407" width="142" height="27" stroke="#000000" stroke-width="2" stroke-miterlimit="8" fill="#FFFFFF"/><text font-family="Calibri,Calibri_MSFontService,sans-serif" font-weight="400" font-size="19" transform="translate(309.138 426)">Sig Root Hash 3</text><rect x="186" y="459" width="264" height="118" stroke="#000000" stroke-width="2" stroke-miterlimit="8" fill="#FFFFFF"/><text font-family="Calibri,Calibri_MSFontService,sans-serif" font-weight="400" font-size="24" transform="translate(199.025 525)">Group B</text><rect x="295" y="469" width="142" height="28" stroke="#000000" stroke-width="2" stroke-miterlimit="8" fill="#FFFFFF"/><text font-family="Calibri,Calibri_MSFontService,sans-serif" font-weight="400" font-size="19" transform="translate(307.747 489)">Sig Root Hash 1</text><rect x="295" y="503" width="142" height="27" stroke="#000000" stroke-width="2" stroke-miterlimit="8" fill="#FFFFFF"/><text font-family="Calibri,Calibri_MSFontService,sans-serif" font-weight="400" font-size="19" transform="translate(307.747 522)">Sig Root Hash 2</text><rect x="296" y="539" width="142" height="27" stroke="#000000" stroke-width="2" stroke-miterlimit="8" fill="#FFFFFF"/><text font-family="Calibri,Calibri_MSFontService,sans-serif" font-weight="400" font-size="19" transform="translate(308.222 558)">Sig Root Hash 3</text><rect x="535" y="106" width="291" height="486" stroke="#000000" stroke-width="2" stroke-miterlimit="8" fill="#FFFFFF"/><text font-family="Calibri,Calibri_MSFontService,sans-serif" font-weight="400" font-size="24" transform="translate(627.727 140)">Identity B<tspan font-size="24" x="-53.5933" y="29">Signature Specs (Sig)</tspan></text><rect x="548" y="195" width="265" height="118" stroke="#000000" stroke-width="2" stroke-miterlimit="8" fill="#FFFFFF"/><text font-family="Calibri,Calibri_MSFontService,sans-serif" font-weight="400" font-size="24" transform="translate(561.913 261)">Master</text><rect x="658" y="206" width="142" height="27" stroke="#000000" stroke-width="2" stroke-miterlimit="8" fill="#FFFFFF"/><text font-family="Calibri,Calibri_MSFontService,sans-serif" font-weight="400" font-size="19" transform="translate(670.635 225)">Sig Root Hash 1</text><rect x="658" y="239" width="142" height="27" stroke="#000000" stroke-width="2" stroke-miterlimit="8" fill="#FFFFFF"/><text font-family="Calibri,Calibri_MSFontService,sans-serif" font-weight="400" font-size="19" transform="translate(670.635 258)">Sig Root Hash 2</text><rect x="659" y="275" width="142" height="27" stroke="#000000" stroke-width="2" stroke-miterlimit="8" fill="#FFFFFF"/><text font-family="Calibri,Calibri_MSFontService,sans-serif" font-weight="400" font-size="19" transform="translate(671.11 294)">Sig Root Hash 3</text><rect x="548" y="327" width="265" height="118" stroke="#000000" stroke-width="2" stroke-miterlimit="8" fill="#FFFFFF"/><text font-family="Calibri,Calibri_MSFontService,sans-serif" font-weight="400" font-size="24" transform="translate(561.914 393)">Group C</text><rect x="658" y="337" width="142" height="28" stroke="#000000" stroke-width="2" stroke-miterlimit="8" fill="#FFFFFF"/><text font-family="Calibri,Calibri_MSFontService,sans-serif" font-weight="400" font-size="19" transform="translate(670.635 357)">Sig Root Hash 1</text><rect x="658" y="371" width="142" height="27" stroke="#000000" stroke-width="2" stroke-miterlimit="8" fill="#FFFFFF"/><text font-family="Calibri,Calibri_MSFontService,sans-serif" font-weight="400" font-size="19" transform="translate(670.635 390)">Sig Root Hash 2</text><rect x="659" y="407" width="142" height="27" stroke="#000000" stroke-width="2" stroke-miterlimit="8" fill="#FFFFFF"/><text font-family="Calibri,Calibri_MSFontService,sans-serif" font-weight="400" font-size="19" transform="translate(671.11 426)">Sig Root Hash 3</text><rect x="548" y="459" width="264" height="118" stroke="#000000" stroke-width="2" stroke-miterlimit="8" fill="#FFFFFF"/><text font-family="Calibri,Calibri_MSFontService,sans-serif" font-weight="400" font-size="24" transform="translate(560.998 525)">Group D</text><rect x="657" y="469" width="142" height="28" stroke="#000000" stroke-width="2" stroke-miterlimit="8" fill="#FFFFFF"/><text font-family="Calibri,Calibri_MSFontService,sans-serif" font-weight="400" font-size="19" transform="translate(669.72 489)">Sig Root Hash 1</text><rect x="657" y="503" width="142" height="27" stroke="#000000" stroke-width="2" stroke-miterlimit="8" fill="#FFFFFF"/><text font-family="Calibri,Calibri_MSFontService,sans-serif" font-weight="400" font-size="19" transform="translate(669.72 522)">Sig Root Hash 2</text><rect x="658" y="539" width="142" height="27" stroke="#000000" stroke-width="2" stroke-miterlimit="8" fill="#FFFFFF"/><text font-family="Calibri,Calibri_MSFontService,sans-serif" font-weight="400" font-size="19" transform="translate(670.195 558)">Sig Root Hash 3</text><rect x="895" y="106" width="291" height="486" stroke="#000000" stroke-width="2" stroke-miterlimit="8" fill="#FFFFFF"/><text font-family="Calibri,Calibri_MSFontService,sans-serif" font-weight="400" font-size="24" transform="translate(988.113 140)">Identity C<tspan font-size="24" x="-53.68" y="29">Signature Specs (Sig)</tspan></text><rect x="909" y="195" width="264" height="118" stroke="#000000" stroke-width="2" stroke-miterlimit="8" fill="#FFFFFF"/><text font-family="Calibri,Calibri_MSFontService,sans-serif" font-weight="400" font-size="24" transform="translate(922.213 261)">Master</text><rect x="1019" y="206" width="142" height="27" stroke="#000000" stroke-width="2" stroke-miterlimit="8" fill="#FFFFFF"/><text font-family="Calibri,Calibri_MSFontService,sans-serif" font-weight="400" font-size="19" transform="translate(1030.94 225)">Sig Root Hash 1</text><rect x="1019" y="239" width="142" height="27" stroke="#000000" stroke-width="2" stroke-miterlimit="8" fill="#FFFFFF"/><text font-family="Calibri,Calibri_MSFontService,sans-serif" font-weight="400" font-size="19" transform="translate(1030.93 258)">Sig Root Hash 2</text><rect x="1019" y="275" width="142" height="27" stroke="#000000" stroke-width="2" stroke-miterlimit="8" fill="#FFFFFF"/><text font-family="Calibri,Calibri_MSFontService,sans-serif" font-weight="400" font-size="19" transform="translate(1031.41 294)">Sig Root Hash 3</text><rect x="909" y="327" width="264" height="118" stroke="#000000" stroke-width="2" stroke-miterlimit="8" fill="#FFFFFF"/><text font-family="Calibri,Calibri_MSFontService,sans-serif" font-weight="400" font-size="24" transform="translate(922.213 393)">Group <tspan font-size="24" x="66.6133" y="0">E</tspan></text><rect x="1019" y="337" width="142" height="28" stroke="#000000" stroke-width="2" stroke-miterlimit="8" fill="#FFFFFF"/><text font-family="Calibri,Calibri_MSFontService,sans-serif" font-weight="400" font-size="19" transform="translate(1030.94 357)">Sig Root Hash 1</text><rect x="1019" y="371" width="142" height="27" stroke="#000000" stroke-width="2" stroke-miterlimit="8" fill="#FFFFFF"/><text font-family="Calibri,Calibri_MSFontService,sans-serif" font-weight="400" font-size="19" transform="translate(1030.93 390)">Sig Root Hash 2</text><rect x="1019" y="407" width="142" height="27" stroke="#000000" stroke-width="2" stroke-miterlimit="8" fill="#FFFFFF"/><text font-family="Calibri,Calibri_MSFontService,sans-serif" font-weight="400" font-size="19" transform="translate(1031.41 426)">Sig Root Hash 3</text><rect x="908" y="459" width="264" height="118" stroke="#000000" stroke-width="2" stroke-miterlimit="8" fill="#FFFFFF"/><text font-family="Calibri,Calibri_MSFontService,sans-serif" font-weight="400" font-size="24" transform="translate(921.298 525)">Group F</text><rect x="1018" y="469" width="142" height="28" stroke="#000000" stroke-width="2" stroke-miterlimit="8" fill="#FFFFFF"/><text font-family="Calibri,Calibri_MSFontService,sans-serif" font-weight="400" font-size="19" transform="translate(1030.02 489)">Sig Root Hash 1</text><rect x="1018" y="503" width="142" height="27" stroke="#000000" stroke-width="2" stroke-miterlimit="8" fill="#FFFFFF"/><text font-family="Calibri,Calibri_MSFontService,sans-serif" font-weight="400" font-size="19" transform="translate(1030.02 522)">Sig Root Hash 2</text><rect x="1018" y="539" width="142" height="27" stroke="#000000" stroke-width="2" stroke-miterlimit="8" fill="#FFFFFF"/><text font-family="Calibri,Calibri_MSFontService,sans-serif" font-weight="400" font-size="19" transform="translate(1030.49 558)">Sig Root Hash 3</text><rect x="242" y="801" width="919" height="92" stroke="#000000" stroke-width="2" stroke-miterlimit="8" fill="#D9D9D9"/><rect x="220" y="766" width="919" height="74" stroke="#000000" stroke-width="2" stroke-miterlimit="8" fill="#FFFFFF"/><text font-family="Calibri,Calibri_MSFontService,sans-serif" font-weight="400" font-size="32" transform="translate(251.374 814)">Main Chain<tspan font-size="32" x="17.0156" y="61">Pending </tspan><tspan font-size="32" x="128.876" y="61">Chain</tspan></text><path d="M0.666667-4.01241e-07 0.666764 162.437-0.666569 162.437-0.666667 4.01241e-07ZM4.0001 161.104 0.000104987 174.437-3.9999 161.104Z" transform="matrix(1 0 0 -1 318.5 766.937)"/><path d="M535 854.167C535 850.761 537.761 848 541.167 848L685.833 848C689.239 848 692 850.761 692 854.167L692 878.833C692 882.239 689.239 885 685.833 885L541.167 885C537.761 885 535 882.239 535 878.833Z" stroke="#000000" stroke-width="2" stroke-miterlimit="8" fill="#FFFFFF" fill-rule="evenodd"/><text font-family="Calibri,Calibri_MSFontService,sans-serif" font-weight="400" font-size="19" transform="translate(550.914 872)">Signature n of m</text><path d="M0-0.666667 37.1524-0.666667 37.1524 61.2624 36.4857 60.5957 60.9714 60.5957 60.9714 61.929 35.8191 61.929 35.8191 0 36.4857 0.666667 0 0.666667ZM59.6381 57.2624 72.9714 61.2624 59.6381 65.2624Z" transform="matrix(1 0 0 -1 692.5 864.762)"/><path d="M765 791.167C765 787.761 767.761 785 771.167 785L880.833 785C884.239 785 887 787.761 887 791.167L887 815.833C887 819.239 884.239 822 880.833 822L771.167 822C767.761 822 765 819.239 765 815.833Z" stroke="#000000" stroke-width="2" stroke-miterlimit="8" fill="#FFFFFF" fill-rule="evenodd"/><text font-family="Calibri,Calibri_MSFontService,sans-serif" font-weight="400" font-size="19" transform="translate(782.028 809)">Transaction</text><path d="M620 419.5 638.5 407 657 419.5 638.5 432Z" stroke="#000000" stroke-width="2" stroke-miterlimit="8" fill="#FFFFFF" fill-rule="evenodd"/><path d="M980 352.5 998.5 340 1017 352.5 998.5 365Z" stroke="#000000" stroke-width="2" stroke-miterlimit="8" fill="#FFFFFF" fill-rule="evenodd"/><path d="M535 652.5C535 645.044 541.044 639 548.5 639L935.5 639C942.956 639 949 645.044 949 652.5L949 706.5C949 713.956 942.956 720 935.5 720L548.5 720C541.044 720 535 713.956 535 706.5Z" stroke="#000000" stroke-width="2" stroke-miterlimit="8" fill="#FFFFFF" fill-rule="evenodd"/><text font-family="Calibri,Calibri_MSFontService,sans-serif" font-weight="400" font-size="19" transform="translate(845.272 684)">Sig Record<tspan font-size="19" x="-288.998" y="0">n of m</tspan></text><path d="M653 693C653 685.268 659.268 679 667 679 674.732 679 681 685.268 681 693 681 700.732 674.732 707 667 707 659.268 707 653 700.732 653 693Z" stroke="#000000" stroke-width="2" stroke-miterlimit="8" fill="#FFFFFF" fill-rule="evenodd"/><path d="M689 660.5 707 648 725 660.5 707 673Z" stroke="#000000" stroke-width="2" stroke-miterlimit="8" fill="#FFFFFF" fill-rule="evenodd"/><path d="M693 693C693 685.268 699.268 679 707 679 714.732 679 721 685.268 721 693 721 700.732 714.732 707 707 707 699.268 707 693 700.732 693 693Z" stroke="#000000" stroke-width="2" stroke-miterlimit="8" fill="#FFFFFF" fill-rule="evenodd"/><path d="M733 693C733 685.268 739.268 679 747 679 754.732 679 761 685.268 761 693 761 700.732 754.732 707 747 707 739.268 707 733 700.732 733 693Z" stroke="#000000" stroke-width="2" stroke-miterlimit="8" fill="#FFFFFF" fill-rule="evenodd"/><path d="M773 693C773 685.268 779.492 679 787.5 679 795.508 679 802 685.268 802 693 802 700.732 795.508 707 787.5 707 779.492 707 773 700.732 773 693Z" stroke="#000000" stroke-width="2" stroke-miterlimit="8" fill="#FFFFFF" fill-rule="evenodd"/><path d="M769 660.5 787.5 648 806 660.5 787.5 673Z" stroke="#000000" stroke-width="2" stroke-miterlimit="8" fill="#FFFFFF" fill-rule="evenodd"/><path d="M0.666676 12 0.666762 117.14-0.666571 117.14-0.666657 12ZM-3.99999 13.3333 0 0 4.00001 13.3333ZM4.00009 115.807 0.000104987 129.14-3.99991 115.807Z" transform="matrix(1 0 0 -1 612.5 849.64)"/><path d="M509.5 660.5 689.768 660.5" stroke="#000000" stroke-width="1.33333" stroke-miterlimit="8" fill="none" fill-rule="evenodd"/><path d="M0 0 0.000104987 240.144" stroke="#000000" stroke-width="1.33333" stroke-miterlimit="8" fill="none" fill-rule="evenodd" transform="matrix(1 0 0 -1 509.5 660.644)"/><path d="M509.5 419.833 608.533 419.833 608.533 421.167 509.5 421.167ZM607.2 416.5 620.533 420.5 607.2 424.5Z"/><path d="M806.5 660.5 870.606 660.5" stroke="#000000" stroke-width="1.33333" stroke-miterlimit="8" fill="none" fill-rule="evenodd"/><path d="M0 0 0.000104987 308.059" stroke="#000000" stroke-width="1.33333" stroke-miterlimit="8" fill="none" fill-rule="evenodd" transform="matrix(1 0 0 -1 870.5 660.559)"/><path d="M870.5 351.833 968.803 351.833 968.803 353.167 870.5 353.167ZM967.469 348.5 980.803 352.5 967.469 356.5Z"/><path d="M980 695.5C980 687.492 986.492 681 994.5 681 1002.51 681 1009 687.492 1009 695.5 1009 703.508 1002.51 710 994.5 710 986.492 710 980 703.508 980 695.5Z" stroke="#000000" stroke-width="2" stroke-miterlimit="8" fill="#FFFFFF" fill-rule="evenodd"/><text font-family="Calibri,Calibri_MSFontService,sans-serif" font-weight="400" font-size="19" transform="translate(1023.02 701)">Keys</text><path d="M976 661.5 994.5 649 1013 661.5 994.5 674Z" stroke="#000000" stroke-width="2" stroke-miterlimit="8" fill="#FFFFFF" fill-rule="evenodd"/><text font-family="Calibri,Calibri_MSFontService,sans-serif" font-weight="400" font-size="19" transform="translate(1023.02 667)">Signatures</text></g></svg>