<svg width="1180" height="327" xmlns="http://www.w3.org/2000/svg" xmlns:xlink="http://www.w3.org/1999/xlink" overflow="hidden"><defs><clipPath id="clip0"><rect x="50" y="341" width="1180" height="327"/></clipPath></defs><g clip-path="url(#clip0)" transform="translate(-50 -341)"><path d="M226 355.834C226 348.746 231.746 343 238.834 343L450.166 343C457.254 343 463 348.746 463 355.834L463 407.166C463 414.254 457.254 420 450.166 420L238.834 420C231.746 420 226 414.254 226 407.166Z" stroke="#000000" stroke-width="2" stroke-miterlimit="8" stroke-dasharray="8 6" fill="none" fill-rule="evenodd"/><text font-family="Calibri,Calibri_MSFontService,sans-serif" font-weight="400" font-size="24" transform="translate(250.284 374)">ADI Chain Validator<tspan font-size="24" x="-0.746674" y="29">(Sponsor’s</tspan><tspan font-size="24" x="106.353" y="29">Identity)</tspan></text><path d="M608 355.834C608 348.746 613.746 343 620.834 343L833.166 343C840.254 343 846 348.746 846 355.834L846 407.166C846 414.254 840.254 420 833.166 420L620.834 420C613.746 420 608 414.254 608 407.166Z" stroke="#000000" stroke-width="2" stroke-miterlimit="8" stroke-dasharray="8 6" fill="none" fill-rule="evenodd"/><text font-family="Calibri,Calibri_MSFontService,sans-serif" font-weight="400" font-size="24" transform="translate(633.419 375)">ADI Chain Validator<tspan font-size="24" x="24.1133" y="29">(New Identity)</tspan></text><path d="M991 355.834C991 348.746 996.746 343 1003.83 343L1216.17 343C1223.25 343 1229 348.746 1229 355.834L1229 407.166C1229 414.254 1223.25 420 1216.17 420L1003.83 420C996.746 420 991 414.254 991 407.166Z" stroke="#000000" stroke-width="2" stroke-miterlimit="8" stroke-dasharray="8 6" fill="none" fill-rule="evenodd"/><text font-family="Calibri,Calibri_MSFontService,sans-serif" font-weight="400" font-size="24" transform="translate(1049.69 374)">Add Identity<tspan font-size="24" x="0.280029" y="29">State</tspan><tspan font-size="24" x="55.5067" y="29">Objec</tspan><tspan font-size="24" x="111.84" y="29">t</tspan></text><path d="M1.45122e-06-1 132.688-0.999807 132.688 1.00019-1.45122e-06 1ZM131.355-6.66648 144.688 0.000209974 131.355 6.66686Z" transform="matrix(1 0 0 -1 463 381)"/><path d="M7.25608e-07-1 132.688-0.999904 132.688 1.0001-7.25608e-07 1ZM131.355-6.66657 144.688 0.000104987 131.355 6.66676Z" transform="matrix(1 0 0 -1 846 381)"/><path d="M51.5001 382C51.5001 366.812 63.8122 354.5 79.0001 354.5 94.1879 354.5 106.5 366.812 106.5 382 106.5 397.188 94.1879 409.5 79.0001 409.5 63.8122 409.5 51.5001 397.188 51.5001 382Z" stroke="#000000" stroke-width="1.33333" stroke-miterlimit="8" fill-rule="evenodd"/><path d="M106 380 213.144 380 213.144 382 106 382ZM211.811 374.333 225.144 381 211.811 387.667Z"/><text font-family="Calibri,Calibri_MSFontService,sans-serif" font-weight="400" font-size="24" transform="translate(115.801 429)">User TX<tspan font-size="24" x="-14.6867" y="29">ADI</tspan><tspan font-size="24" x="25.48" y="29">Creat</tspan><tspan font-size="24" x="77.3533" y="29">e</tspan></text><path d="M336 420 336 509.571 334 509.571 334 420ZM341.667 508.237 335 521.57 328.333 508.237Z"/><text font-family="Calibri,Calibri_MSFontService,sans-serif" font-weight="400" font-size="24" transform="translate(302.978 617)">Invalid<tspan font-size="24" x="-20.0667" y="29">ADI</tspan><tspan font-size="24" x="20.1" y="29">Creat</tspan><tspan font-size="24" x="71.9733" y="29">e</tspan><tspan font-size="24" x="183.676" y="-188">Synthetic</tspan><tspan font-size="24" x="176.749" y="-159">ADI</tspan><tspan font-size="24" x="216.916" y="-159">Creat</tspan><tspan font-size="24" x="268.789" y="-159">e</tspan><tspan font-size="24" x="386.411" y="0">Identity</tspan><tspan font-size="24" x="397.184" y="29">Exist</tspan>s</text><path d="M728 420 728 509.571 726 509.571 726 420ZM733.667 508.237 727 521.57 720.333 508.237Z"/><path d="M307 548.5C307 533.312 319.312 521 334.5 521 349.688 521 362 533.312 362 548.5 362 563.688 349.688 576 334.5 576 319.312 576 307 563.688 307 548.5Z" stroke="#000000" stroke-width="2" stroke-miterlimit="8" fill="#FFFFFF" fill-rule="evenodd"/><path d="M315 548.5C315 537.178 323.954 528 335 528 346.046 528 355 537.178 355 548.5 355 559.822 346.046 569 335 569 323.954 569 315 559.822 315 548.5Z" stroke="#000000" stroke-width="2" stroke-miterlimit="8" fill-rule="evenodd"/><path d="M700 548.5C700 533.312 712.312 521 727.5 521 742.688 521 755 533.312 755 548.5 755 563.688 742.688 576 727.5 576 712.312 576 700 563.688 700 548.5Z" stroke="#000000" stroke-width="2" stroke-miterlimit="8" fill="#FFFFFF" fill-rule="evenodd"/><path d="M707 548.5C707 537.178 715.954 528 727 528 738.046 528 747 537.178 747 548.5 747 559.822 738.046 569 727 569 715.954 569 707 559.822 707 548.5Z" stroke="#000000" stroke-width="2" stroke-miterlimit="8" fill-rule="evenodd"/><path d="M1085 548.5C1085 533.312 1097.31 521 1112.5 521 1127.69 521 1140 533.312 1140 548.5 1140 563.688 1127.69 576 1112.5 576 1097.31 576 1085 563.688 1085 548.5Z" stroke="#000000" stroke-width="2" stroke-miterlimit="8" fill="#FFFFFF" fill-rule="evenodd"/><path d="M1092 548.5C1092 537.178 1100.95 528 1112 528 1123.05 528 1132 537.178 1132 548.5 1132 559.822 1123.05 569 1112 569 1100.95 569 1092 559.822 1092 548.5Z" stroke="#000000" stroke-width="2" stroke-miterlimit="8" fill-rule="evenodd"/><path d="M1112 419 1112 508.571 1110 508.571 1110 419ZM1117.67 507.237 1111 520.57 1104.33 507.237Z"/><text font-family="Calibri,Calibri_MSFontService,sans-serif" font-weight="400" font-size="24" transform="translate(861.776 429)">New Chain<tspan font-size="24" x="27.74" y="29">State</tspan><tspan font-size="24" x="212.544" y="188">Identity</tspan><tspan font-size="24" x="211.998" y="217">Create</tspan><tspan font-size="24" x="275.871" y="217">d</tspan></text></g></svg>