<svg version="1.1" viewBox="0.0 0.0 717.7112860892388 486.73753280839895" fill="none" stroke="none" stroke-linecap="square" stroke-miterlimit="10" xmlns:xlink="http://www.w3.org/1999/xlink" xmlns="http://www.w3.org/2000/svg"><clipPath id="p.0"><path d="m0 0l717.7113 0l0 486.73752l-717.7113 0l0 -486.73752z" clip-rule="nonzero"/></clipPath><g clip-path="url(#p.0)"><path fill="#000000" fill-opacity="0.0" d="m0 0l717.7113 0l0 486.73752l-717.7113 0z" fill-rule="evenodd"/><path fill="#f3f3f3" d="m10.286089 38.13718l0 0c0 -19.27092 15.622168 -34.893085 34.89309 -34.893085l618.1193 0c9.254211 0 18.129395 3.6762257 24.673157 10.219948c6.543701 6.543724 10.21991 15.418917 10.21991 24.673138l0 139.56816c0 19.27092 -15.622131 34.89308 -34.893066 34.89308l-618.1193 0c-19.27092 0 -34.89309 -15.622162 -34.89309 -34.89308z" fill-rule="evenodd"/><path stroke="#000000" stroke-width="1.0" stroke-linejoin="round" stroke-linecap="butt" d="m10.286089 38.13718l0 0c0 -19.27092 15.622168 -34.893085 34.89309 -34.893085l618.1193 0c9.254211 0 18.129395 3.6762257 24.673157 10.219948c6.543701 6.543724 10.21991 15.418917 10.21991 24.673138l0 139.56816c0 19.27092 -15.622131 34.89308 -34.893066 34.89308l-618.1193 0c-19.27092 0 -34.89309 -15.622162 -34.89309 -34.89308z" fill-rule="evenodd"/><path fill="#000000" d="m335.57983 199.17859l0 -9.546875l3.59375 0q1.09375 0 1.75 0.296875q0.65625 0.28125 1.03125 0.890625q0.375 0.609375 0.375 1.265625q0 0.609375 -0.34375 1.15625q-0.328125 0.53125 -0.984375 0.859375q0.859375 0.25 1.328125 0.875q0.46875 0.609375 0.46875 1.4375q0 0.671875 -0.296875 1.25q-0.28125 0.578125 -0.703125 0.890625q-0.40625 0.3125 -1.03125 0.46875q-0.625 0.15625 -1.546875 0.15625l-3.640625 0zm1.265625 -5.53125l2.0625 0q0.84375 0 1.203125 -0.109375q0.484375 -0.140625 0.71875 -0.46875q0.25 -0.34375 0.25 -0.84375q0 -0.46875 -0.234375 -0.828125q-0.21875 -0.359375 -0.640625 -0.5q-0.421875 -0.140625 -1.453125 -0.140625l-1.90625 0l0 2.890625zm0 4.40625l2.375 0q0.609375 0 0.859375 -0.046875q0.4375 -0.078125 0.734375 -0.25q0.296875 -0.1875 0.484375 -0.53125q0.1875 -0.359375 0.1875 -0.8125q0 -0.53125 -0.28125 -0.921875q-0.265625 -0.40625 -0.75 -0.5625q-0.484375 -0.15625 -1.40625 -0.15625l-2.203125 0l0 3.28125zm10.4053955 1.125l-3.6875 -9.546875l1.359375 0l2.484375 6.9375q0.296875 0.828125 0.5 1.5625q0.21875 -0.78125 0.515625 -1.5625l2.578125 -6.9375l1.28125 0l-3.734375 9.546875l-1.296875 0zm6.155365 0l0 -9.546875l1.296875 0l5.015625 7.5l0 -7.5l1.203125 0l0 9.546875l-1.296875 0l-5.015625 -7.5l0 7.5l-1.203125 0zm9.031403 -2.859375l0 -1.1875l3.59375 0l0 1.1875l-3.59375 0zm4.5633545 -1.84375q0 -1.6875 0.34375 -2.71875q0.359375 -1.03125 1.046875 -1.59375q0.6875 -0.5625 1.71875 -0.5625q0.78125 0 1.359375 0.3125q0.578125 0.296875 0.953125 0.890625q0.375 0.578125 0.59375 1.421875q0.21875 0.828125 0.21875 2.25q0 1.671875 -0.359375 2.703125q-0.34375 1.03125 -1.03125 1.59375q-0.671875 0.5625 -1.734375 0.5625q-1.375 0 -2.15625 -0.984375q-0.953125 -1.1875 -0.953125 -3.875zm1.203125 0q0 2.34375 0.546875 3.125q0.5625 0.78125 1.359375 0.78125q0.8125 0 1.359375 -0.78125q0.5625 -0.78125 0.5625 -3.125q0 -2.359375 -0.5625 -3.125q-0.546875 -0.78125 -1.359375 -0.78125q-0.8125 0 -1.296875 0.6875q-0.609375 0.875 -0.609375 3.21875z" fill-rule="nonzero"/><path fill="#f3f3f3" d="m521.874 33.212597l107.49603 0l0 144.15747l-107.49603 0z" fill-rule="evenodd"/><path stroke="#ffffff" stroke-width="2.0" stroke-linejoin="round" stroke-linecap="butt" d="m521.874 33.212597l107.49603 0l0 144.15747l-107.49603 0z" fill-rule="evenodd"/><path fill="#f3f3f3" d="m369.87402 33.212597l130.14172 0l0 144.15747l-130.14172 0z" fill-rule="evenodd"/><path stroke="#ffffff" stroke-width="2.0" stroke-linejoin="round" stroke-linecap="butt" d="m369.87402 33.212597l130.14172 0l0 144.15747l-130.14172 0z" fill-rule="evenodd"/><path fill="#f3f3f3" d="m252.72704 33.212597l107.49605 0l0 144.15747l-107.49605 0z" fill-rule="evenodd"/><path stroke="#ffffff" stroke-width="2.0" stroke-linejoin="round" stroke-linecap="butt" d="m252.72704 33.212597l107.49605 0l0 144.15747l-107.49605 0z" fill-rule="evenodd"/><path fill="#f3f3f3" d="m89.874016 33.212597l150.89764 0l0 144.15747l-150.89764 0z" fill-rule="evenodd"/><path stroke="#ffffff" stroke-width="2.0" stroke-linejoin="round" stroke-linecap="butt" d="m89.874016 33.212597l150.89764 0l0 144.15747l-150.89764 0z" fill-rule="evenodd"/><path fill="#d0e0e3" d="m85.2126 153.47507l540.9134 0l0 10.551178l-540.9134 0z" fill-rule="evenodd"/><path stroke="#d0e0e3" stroke-width="1.0" stroke-linejoin="round" stroke-linecap="butt" d="m85.2126 153.47507l540.9134 0l0 10.551178l-540.9134 0z" fill-rule="evenodd"/><path fill="#f3f6bd" d="m85.2126 60.328274l540.9134 0l0 10.551182l-540.9134 0z" fill-rule="evenodd"/><path stroke="#f3f6bd" stroke-width="1.0" stroke-linejoin="round" stroke-linecap="butt" d="m85.2126 60.328274l540.9134 0l0 10.551182l-540.9134 0z" fill-rule="evenodd"/><path fill="#f3f6bd" d="m85.2126 92.32865l540.9134 0l0 10.551186l-540.9134 0z" fill-rule="evenodd"/><path stroke="#f3f6bd" stroke-width="1.0" stroke-linejoin="round" stroke-linecap="butt" d="m85.2126 92.32865l540.9134 0l0 10.551186l-540.9134 0z" fill-rule="evenodd"/><path fill="#f3f6bd" d="m85.2126 124.32903l540.9134 0l0 10.551186l-540.9134 0z" fill-rule="evenodd"/><path stroke="#f3f6bd" stroke-width="1.0" stroke-linejoin="round" stroke-linecap="butt" d="m85.2126 124.32903l540.9134 0l0 10.551186l-540.9134 0z" fill-rule="evenodd"/><path fill="#d9ead3" d="m85.2126 108.32884l540.9134 0l0 10.551178l-540.9134 0z" fill-rule="evenodd"/><path stroke="#f3f6bd" stroke-width="1.0" stroke-linejoin="round" stroke-linecap="butt" d="m85.2126 108.32884l540.9134 0l0 10.551178l-540.9134 0z" fill-rule="evenodd"/><path fill="#d9ead3" d="m85.2126 76.32846l540.9134 0l0 10.551186l-540.9134 0z" fill-rule="evenodd"/><path stroke="#f3f6bd" stroke-width="1.0" stroke-linejoin="round" stroke-linecap="butt" d="m85.2126 76.32846l540.9134 0l0 10.551186l-540.9134 0z" fill-rule="evenodd"/><path fill="#d9ead3" d="m85.2126 44.328083l540.9134 0l0 10.551182l-540.9134 0z" fill-rule="evenodd"/><path stroke="#f3f6bd" stroke-width="1.0" stroke-linejoin="round" stroke-linecap="butt" d="m85.2126 44.328083l540.9134 0l0 10.551182l-540.9134 0z" fill-rule="evenodd"/><path fill="#fce5cd" d="m97.72966 81.28871l0 0c0 -2.9136276 2.6721878 -5.275589 5.968506 -5.275589l0 0c3.2963104 0 5.968498 2.3619614 5.968498 5.275589l0 0c0 2.9136276 -2.6721878 5.2755966 -5.968498 5.2755966l0 0c-3.296318 0 -5.968506 -2.361969 -5.968506 -5.2755966z" fill-rule="evenodd"/><path stroke="#000000" stroke-width="1.0" stroke-linejoin="round" stroke-linecap="butt" d="m97.72966 81.28871l0 0c0 -2.9136276 2.6721878 -5.275589 5.968506 -5.275589l0 0c3.2963104 0 5.968498 2.3619614 5.968498 5.275589l0 0c0 2.9136276 -2.6721878 5.2755966 -5.968498 5.2755966l0 0c-3.296318 0 -5.968506 -2.361969 -5.968506 -5.2755966z" fill-rule="evenodd"/><path fill="#fce5cd" d="m121.72966 81.28871l0 0c0 -2.9136276 2.6721878 -5.275589 5.968506 -5.275589l0 0c3.2963104 0 5.968506 2.3619614 5.968506 5.275589l0 0c0 2.9136276 -2.6721954 5.2755966 -5.968506 5.2755966l0 0c-3.296318 0 -5.968506 -2.361969 -5.968506 -5.2755966z" fill-rule="evenodd"/><path stroke="#000000" stroke-width="1.0" stroke-linejoin="round" stroke-linecap="butt" d="m121.72966 81.28871l0 0c0 -2.9136276 2.6721878 -5.275589 5.968506 -5.275589l0 0c3.2963104 0 5.968506 2.3619614 5.968506 5.275589l0 0c0 2.9136276 -2.6721954 5.2755966 -5.968506 5.2755966l0 0c-3.296318 0 -5.968506 -2.361969 -5.968506 -5.2755966z" fill-rule="evenodd"/><path fill="#fce5cd" d="m145.72966 81.28871l0 0c0 -2.9136276 2.6721954 -5.275589 5.968506 -5.275589l0 0c3.2963104 0 5.968506 2.3619614 5.968506 5.275589l0 0c0 2.9136276 -2.6721954 5.2755966 -5.968506 5.2755966l0 0c-3.2963104 0 -5.968506 -2.361969 -5.968506 -5.2755966z" fill-rule="evenodd"/><path stroke="#000000" stroke-width="1.0" stroke-linejoin="round" stroke-linecap="butt" d="m145.72966 81.28871l0 0c0 -2.9136276 2.6721954 -5.275589 5.968506 -5.275589l0 0c3.2963104 0 5.968506 2.3619614 5.968506 5.275589l0 0c0 2.9136276 -2.6721954 5.2755966 -5.968506 5.2755966l0 0c-3.2963104 0 -5.968506 -2.361969 -5.968506 -5.2755966z" fill-rule="evenodd"/><path fill="#fce5cd" d="m169.72966 81.28871l0 0c0 -2.9136276 2.6721954 -5.275589 5.968506 -5.275589l0 0c3.2963104 0 5.968506 2.3619614 5.968506 5.275589l0 0c0 2.9136276 -2.6721954 5.2755966 -5.968506 5.2755966l0 0c-3.2963104 0 -5.968506 -2.361969 -5.968506 -5.2755966z" fill-rule="evenodd"/><path stroke="#000000" stroke-width="1.0" stroke-linejoin="round" stroke-linecap="butt" d="m169.72966 81.28871l0 0c0 -2.9136276 2.6721954 -5.275589 5.968506 -5.275589l0 0c3.2963104 0 5.968506 2.3619614 5.968506 5.275589l0 0c0 2.9136276 -2.6721954 5.2755966 -5.968506 5.2755966l0 0c-3.2963104 0 -5.968506 -2.361969 -5.968506 -5.2755966z" fill-rule="evenodd"/><path fill="#fce5cd" d="m289.72964 113.28871l0 0c0 -2.9136276 2.6722107 -5.275589 5.968506 -5.275589l0 0c3.2963257 0 5.968506 2.3619614 5.968506 5.275589l0 0c0 2.9136276 -2.6721802 5.2755966 -5.968506 5.2755966l0 0c-3.2962952 0 -5.968506 -2.361969 -5.968506 -5.2755966z" fill-rule="evenodd"/><path stroke="#000000" stroke-width="1.0" stroke-linejoin="round" stroke-linecap="butt" d="m289.72964 113.28871l0 0c0 -2.9136276 2.6722107 -5.275589 5.968506 -5.275589l0 0c3.2963257 0 5.968506 2.3619614 5.968506 5.275589l0 0c0 2.9136276 -2.6721802 5.2755966 -5.968506 5.2755966l0 0c-3.2962952 0 -5.968506 -2.361969 -5.968506 -5.2755966z" fill-rule="evenodd"/><path fill="#fce5cd" d="m529.7297 65.28871l0 0c0 -2.9136276 2.6721802 -5.275589 5.968506 -5.275589l0 0c3.2963257 0 5.968506 2.3619614 5.968506 5.275589l0 0c0 2.9136276 -2.6721802 5.2755966 -5.968506 5.2755966l0 0c-3.2963257 0 -5.968506 -2.361969 -5.968506 -5.2755966z" fill-rule="evenodd"/><path stroke="#000000" stroke-width="1.0" stroke-linejoin="round" stroke-linecap="butt" d="m529.7297 65.28871l0 0c0 -2.9136276 2.6721802 -5.275589 5.968506 -5.275589l0 0c3.2963257 0 5.968506 2.3619614 5.968506 5.275589l0 0c0 2.9136276 -2.6721802 5.2755966 -5.968506 5.2755966l0 0c-3.2963257 0 -5.968506 -2.361969 -5.968506 -5.2755966z" fill-rule="evenodd"/><path fill="#fce5cd" d="m553.7297 65.28871l0 0c0 -2.9136276 2.6721802 -5.275589 5.968506 -5.275589l0 0c3.2963257 0 5.968506 2.3619614 5.968506 5.275589l0 0c0 2.9136276 -2.6721802 5.2755966 -5.968506 5.2755966l0 0c-3.2963257 0 -5.968506 -2.361969 -5.968506 -5.2755966z" fill-rule="evenodd"/><path stroke="#000000" stroke-width="1.0" stroke-linejoin="round" stroke-linecap="butt" d="m553.7297 65.28871l0 0c0 -2.9136276 2.6721802 -5.275589 5.968506 -5.275589l0 0c3.2963257 0 5.968506 2.3619614 5.968506 5.275589l0 0c0 2.9136276 -2.6721802 5.2755966 -5.968506 5.2755966l0 0c-3.2963257 0 -5.968506 -2.361969 -5.968506 -5.2755966z" fill-rule="evenodd"/><path fill="#fce5cd" d="m189.79265 158.95801l0 0c0 -2.9136353 2.6721954 -5.275589 5.968506 -5.275589l0 0c3.2963104 0 5.968506 2.3619537 5.968506 5.275589l0 0c0 2.91362 -2.6721954 5.275589 -5.968506 5.275589l0 0c-3.2963104 0 -5.968506 -2.361969 -5.968506 -5.275589z" fill-rule="evenodd"/><path stroke="#000000" stroke-width="1.0" stroke-linejoin="round" stroke-linecap="butt" d="m189.79265 158.95801l0 0c0 -2.9136353 2.6721954 -5.275589 5.968506 -5.275589l0 0c3.2963104 0 5.968506 2.3619537 5.968506 5.275589l0 0c0 2.91362 -2.6721954 5.275589 -5.968506 5.275589l0 0c-3.2963104 0 -5.968506 -2.361969 -5.968506 -5.275589z" fill-rule="evenodd"/><path fill="#fce5cd" d="m205.79265 158.95801l0 0c0 -2.9136353 2.6721954 -5.275589 5.968506 -5.275589l0 0c3.2963104 0 5.968506 2.3619537 5.968506 5.275589l0 0c0 2.91362 -2.6721954 5.275589 -5.968506 5.275589l0 0c-3.2963104 0 -5.968506 -2.361969 -5.968506 -5.275589z" fill-rule="evenodd"/><path stroke="#000000" stroke-width="1.0" stroke-linejoin="round" stroke-linecap="butt" d="m205.79265 158.95801l0 0c0 -2.9136353 2.6721954 -5.275589 5.968506 -5.275589l0 0c3.2963104 0 5.968506 2.3619537 5.968506 5.275589l0 0c0 2.91362 -2.6721954 5.275589 -5.968506 5.275589l0 0c-3.2963104 0 -5.968506 -2.361969 -5.968506 -5.275589z" fill-rule="evenodd"/><path fill="#fce5cd" d="m221.79265 158.95801l0 0c0 -2.9136353 2.6721954 -5.275589 5.968506 -5.275589l0 0c3.2963104 0 5.968506 2.3619537 5.968506 5.275589l0 0c0 2.91362 -2.6721954 5.275589 -5.968506 5.275589l0 0c-3.2963104 0 -5.968506 -2.361969 -5.968506 -5.275589z" fill-rule="evenodd"/><path stroke="#000000" stroke-width="1.0" stroke-linejoin="round" stroke-linecap="butt" d="m221.79265 158.95801l0 0c0 -2.9136353 2.6721954 -5.275589 5.968506 -5.275589l0 0c3.2963104 0 5.968506 2.3619537 5.968506 5.275589l0 0c0 2.91362 -2.6721954 5.275589 -5.968506 5.275589l0 0c-3.2963104 0 -5.968506 -2.361969 -5.968506 -5.275589z" fill-rule="evenodd"/><path fill="#fce5cd" d="m305.72964 159.09186l0 0c0 -2.91362 2.6722107 -5.275589 5.968506 -5.275589l0 0c3.2963257 0 5.968506 2.361969 5.968506 5.275589l0 0c0 2.9136353 -2.6721802 5.275589 -5.968506 5.275589l0 0c-3.2962952 0 -5.968506 -2.3619537 -5.968506 -5.275589z" fill-rule="evenodd"/><path stroke="#000000" stroke-width="1.0" stroke-linejoin="round" stroke-linecap="butt" d="m305.72964 159.09186l0 0c0 -2.91362 2.6722107 -5.275589 5.968506 -5.275589l0 0c3.2963257 0 5.968506 2.361969 5.968506 5.275589l0 0c0 2.9136353 -2.6721802 5.275589 -5.968506 5.275589l0 0c-3.2962952 0 -5.968506 -2.3619537 -5.968506 -5.275589z" fill-rule="evenodd"/><path fill="#fce5cd" d="m321.72964 159.09186l0 0c0 -2.91362 2.6722107 -5.275589 5.968506 -5.275589l0 0c3.2963257 0 5.968506 2.361969 5.968506 5.275589l0 0c0 2.9136353 -2.6721802 5.275589 -5.968506 5.275589l0 0c-3.2962952 0 -5.968506 -2.3619537 -5.968506 -5.275589z" fill-rule="evenodd"/><path stroke="#000000" stroke-width="1.0" stroke-linejoin="round" stroke-linecap="butt" d="m321.72964 159.09186l0 0c0 -2.91362 2.6722107 -5.275589 5.968506 -5.275589l0 0c3.2963257 0 5.968506 2.361969 5.968506 5.275589l0 0c0 2.9136353 -2.6721802 5.275589 -5.968506 5.275589l0 0c-3.2962952 0 -5.968506 -2.3619537 -5.968506 -5.275589z" fill-rule="evenodd"/><path fill="#fce5cd" d="m441.72964 159.09186l0 0c0 -2.91362 2.6722107 -5.275589 5.968506 -5.275589l0 0c3.2963257 0 5.968506 2.361969 5.968506 5.275589l0 0c0 2.9136353 -2.6721802 5.275589 -5.968506 5.275589l0 0c-3.2962952 0 -5.968506 -2.3619537 -5.968506 -5.275589z" fill-rule="evenodd"/><path stroke="#000000" stroke-width="1.0" stroke-linejoin="round" stroke-linecap="butt" d="m441.72964 159.09186l0 0c0 -2.91362 2.6722107 -5.275589 5.968506 -5.275589l0 0c3.2963257 0 5.968506 2.361969 5.968506 5.275589l0 0c0 2.9136353 -2.6721802 5.275589 -5.968506 5.275589l0 0c-3.2962952 0 -5.968506 -2.3619537 -5.968506 -5.275589z" fill-rule="evenodd"/><path fill="#fce5cd" d="m457.72964 159.09186l0 0c0 -2.91362 2.6722107 -5.275589 5.968506 -5.275589l0 0c3.2963257 0 5.968506 2.361969 5.968506 5.275589l0 0c0 2.9136353 -2.6721802 5.275589 -5.968506 5.275589l0 0c-3.2962952 0 -5.968506 -2.3619537 -5.968506 -5.275589z" fill-rule="evenodd"/><path stroke="#000000" stroke-width="1.0" stroke-linejoin="round" stroke-linecap="butt" d="m457.72964 159.09186l0 0c0 -2.91362 2.6722107 -5.275589 5.968506 -5.275589l0 0c3.2963257 0 5.968506 2.361969 5.968506 5.275589l0 0c0 2.9136353 -2.6721802 5.275589 -5.968506 5.275589l0 0c-3.2962952 0 -5.968506 -2.3619537 -5.968506 -5.275589z" fill-rule="evenodd"/><path fill="#fce5cd" d="m473.72964 159.09186l0 0c0 -2.91362 2.6722107 -5.275589 5.968506 -5.275589l0 0c3.2963257 0 5.968506 2.361969 5.968506 5.275589l0 0c0 2.9136353 -2.6721802 5.275589 -5.968506 5.275589l0 0c-3.2962952 0 -5.968506 -2.3619537 -5.968506 -5.275589z" fill-rule="evenodd"/><path stroke="#000000" stroke-width="1.0" stroke-linejoin="round" stroke-linecap="butt" d="m473.72964 159.09186l0 0c0 -2.91362 2.6722107 -5.275589 5.968506 -5.275589l0 0c3.2963257 0 5.968506 2.361969 5.968506 5.275589l0 0c0 2.9136353 -2.6721802 5.275589 -5.968506 5.275589l0 0c-3.2962952 0 -5.968506 -2.3619537 -5.968506 -5.275589z" fill-rule="evenodd"/><path fill="#fce5cd" d="m577.7297 159.09186l0 0c0 -2.91362 2.6721802 -5.275589 5.968506 -5.275589l0 0c3.2963257 0 5.968506 2.361969 5.968506 5.275589l0 0c0 2.9136353 -2.6721802 5.275589 -5.968506 5.275589l0 0c-3.2963257 0 -5.968506 -2.3619537 -5.968506 -5.275589z" fill-rule="evenodd"/><path stroke="#000000" stroke-width="1.0" stroke-linejoin="round" stroke-linecap="butt" d="m577.7297 159.09186l0 0c0 -2.91362 2.6721802 -5.275589 5.968506 -5.275589l0 0c3.2963257 0 5.968506 2.361969 5.968506 5.275589l0 0c0 2.9136353 -2.6721802 5.275589 -5.968506 5.275589l0 0c-3.2963257 0 -5.968506 -2.3619537 -5.968506 -5.275589z" fill-rule="evenodd"/><path fill="#000000" fill-opacity="0.0" d="m301.66666 113.28871l10.047241 40.53543" fill-rule="evenodd"/><path stroke="#000000" stroke-width="1.0" stroke-linejoin="round" stroke-linecap="butt" d="m301.66666 113.28871l10.047241 40.53543" fill-rule="evenodd"/><path fill="#fce5cd" d="m121.72966 65.28871l0 0c0 -2.9136276 2.6721878 -5.275589 5.968506 -5.275589l0 0c3.2963104 0 5.968506 2.3619614 5.968506 5.275589l0 0c0 2.9136276 -2.6721954 5.2755966 -5.968506 5.2755966l0 0c-3.296318 0 -5.968506 -2.361969 -5.968506 -5.2755966z" fill-rule="evenodd"/><path stroke="#000000" stroke-width="1.0" stroke-linejoin="round" stroke-linecap="butt" d="m121.72966 65.28871l0 0c0 -2.9136276 2.6721878 -5.275589 5.968506 -5.275589l0 0c3.2963104 0 5.968506 2.3619614 5.968506 5.275589l0 0c0 2.9136276 -2.6721954 5.2755966 -5.968506 5.2755966l0 0c-3.296318 0 -5.968506 -2.361969 -5.968506 -5.2755966z" fill-rule="evenodd"/><path fill="#fce5cd" d="m145.72966 65.28871l0 0c0 -2.9136276 2.6721954 -5.275589 5.968506 -5.275589l0 0c3.2963104 0 5.968506 2.3619614 5.968506 5.275589l0 0c0 2.9136276 -2.6721954 5.2755966 -5.968506 5.2755966l0 0c-3.2963104 0 -5.968506 -2.361969 -5.968506 -5.2755966z" fill-rule="evenodd"/><path stroke="#000000" stroke-width="1.0" stroke-linejoin="round" stroke-linecap="butt" d="m145.72966 65.28871l0 0c0 -2.9136276 2.6721954 -5.275589 5.968506 -5.275589l0 0c3.2963104 0 5.968506 2.3619614 5.968506 5.275589l0 0c0 2.9136276 -2.6721954 5.2755966 -5.968506 5.2755966l0 0c-3.2963104 0 -5.968506 -2.361969 -5.968506 -5.2755966z" fill-rule="evenodd"/><path fill="#fce5cd" d="m169.72966 65.28871l0 0c0 -2.9136276 2.6721954 -5.275589 5.968506 -5.275589l0 0c3.2963104 0 5.968506 2.3619614 5.968506 5.275589l0 0c0 2.9136276 -2.6721954 5.2755966 -5.968506 5.2755966l0 0c-3.2963104 0 -5.968506 -2.361969 -5.968506 -5.2755966z" fill-rule="evenodd"/><path stroke="#000000" stroke-width="1.0" stroke-linejoin="round" stroke-linecap="butt" d="m169.72966 65.28871l0 0c0 -2.9136276 2.6721954 -5.275589 5.968506 -5.275589l0 0c3.2963104 0 5.968506 2.3619614 5.968506 5.275589l0 0c0 2.9136276 -2.6721954 5.2755966 -5.968506 5.2755966l0 0c-3.2963104 0 -5.968506 -2.361969 -5.968506 -5.2755966z" fill-rule="evenodd"/><path fill="#fce5cd" d="m265.72964 97.28871l0 0c0 -2.9136276 2.6722107 -5.275589 5.968506 -5.275589l0 0c3.2963257 0 5.968506 2.3619614 5.968506 5.275589l0 0c0 2.9136276 -2.6721802 5.2755966 -5.968506 5.2755966l0 0c-3.2962952 0 -5.968506 -2.361969 -5.968506 -5.2755966z" fill-rule="evenodd"/><path stroke="#000000" stroke-width="1.0" stroke-linejoin="round" stroke-linecap="butt" d="m265.72964 97.28871l0 0c0 -2.9136276 2.6722107 -5.275589 5.968506 -5.275589l0 0c3.2963257 0 5.968506 2.3619614 5.968506 5.275589l0 0c0 2.9136276 -2.6721802 5.2755966 -5.968506 5.2755966l0 0c-3.2962952 0 -5.968506 -2.361969 -5.968506 -5.2755966z" fill-rule="evenodd"/><path fill="#fce5cd" d="m289.72964 97.28871l0 0c0 -2.9136276 2.6722107 -5.275589 5.968506 -5.275589l0 0c3.2963257 0 5.968506 2.3619614 5.968506 5.275589l0 0c0 2.9136276 -2.6721802 5.2755966 -5.968506 5.2755966l0 0c-3.2962952 0 -5.968506 -2.361969 -5.968506 -5.2755966z" fill-rule="evenodd"/><path stroke="#000000" stroke-width="1.0" stroke-linejoin="round" stroke-linecap="butt" d="m289.72964 97.28871l0 0c0 -2.9136276 2.6722107 -5.275589 5.968506 -5.275589l0 0c3.2963257 0 5.968506 2.3619614 5.968506 5.275589l0 0c0 2.9136276 -2.6721802 5.2755966 -5.968506 5.2755966l0 0c-3.2962952 0 -5.968506 -2.361969 -5.968506 -5.2755966z" fill-rule="evenodd"/><path fill="#fce5cd" d="m377.72964 49.288715l0 0c0 -2.9136314 2.6722107 -5.275593 5.968506 -5.275593l0 0c3.2963257 0 5.968506 2.3619614 5.968506 5.275593l0 0c0 2.9136276 -2.6721802 5.275589 -5.968506 5.275589l0 0c-3.2962952 0 -5.968506 -2.3619614 -5.968506 -5.275589z" fill-rule="evenodd"/><path stroke="#000000" stroke-width="1.0" stroke-linejoin="round" stroke-linecap="butt" d="m377.72964 49.288715l0 0c0 -2.9136314 2.6722107 -5.275593 5.968506 -5.275593l0 0c3.2963257 0 5.968506 2.3619614 5.968506 5.275593l0 0c0 2.9136276 -2.6721802 5.275589 -5.968506 5.275589l0 0c-3.2962952 0 -5.968506 -2.3619614 -5.968506 -5.275589z" fill-rule="evenodd"/><path fill="#fce5cd" d="m401.72964 49.288715l0 0c0 -2.9136314 2.6722107 -5.275593 5.968506 -5.275593l0 0c3.2963257 0 5.968506 2.3619614 5.968506 5.275593l0 0c0 2.9136276 -2.6721802 5.275589 -5.968506 5.275589l0 0c-3.2962952 0 -5.968506 -2.3619614 -5.968506 -5.275589z" fill-rule="evenodd"/><path stroke="#000000" stroke-width="1.0" stroke-linejoin="round" stroke-linecap="butt" d="m401.72964 49.288715l0 0c0 -2.9136314 2.6722107 -5.275593 5.968506 -5.275593l0 0c3.2963257 0 5.968506 2.3619614 5.968506 5.275593l0 0c0 2.9136276 -2.6721802 5.275589 -5.968506 5.275589l0 0c-3.2962952 0 -5.968506 -2.3619614 -5.968506 -5.275589z" fill-rule="evenodd"/><path fill="#fce5cd" d="m425.72964 49.288715l0 0c0 -2.9136314 2.6722107 -5.275593 5.968506 -5.275593l0 0c3.2963257 0 5.968506 2.3619614 5.968506 5.275593l0 0c0 2.9136276 -2.6721802 5.275589 -5.968506 5.275589l0 0c-3.2962952 0 -5.968506 -2.3619614 -5.968506 -5.275589z" fill-rule="evenodd"/><path stroke="#000000" stroke-width="1.0" stroke-linejoin="round" stroke-linecap="butt" d="m425.72964 49.288715l0 0c0 -2.9136314 2.6722107 -5.275593 5.968506 -5.275593l0 0c3.2963257 0 5.968506 2.3619614 5.968506 5.275593l0 0c0 2.9136276 -2.6721802 5.275589 -5.968506 5.275589l0 0c-3.2962952 0 -5.968506 -2.3619614 -5.968506 -5.275589z" fill-rule="evenodd"/><path fill="#fce5cd" d="m97.72966 129.28871l0 0c0 -2.9136276 2.6721878 -5.275589 5.968506 -5.275589l0 0c3.2963104 0 5.968498 2.3619614 5.968498 5.275589l0 0c0 2.9136353 -2.6721878 5.275589 -5.968498 5.275589l0 0c-3.296318 0 -5.968506 -2.3619537 -5.968506 -5.275589z" fill-rule="evenodd"/><path stroke="#000000" stroke-width="1.0" stroke-linejoin="round" stroke-linecap="butt" d="m97.72966 129.28871l0 0c0 -2.9136276 2.6721878 -5.275589 5.968506 -5.275589l0 0c3.2963104 0 5.968498 2.3619614 5.968498 5.275589l0 0c0 2.9136353 -2.6721878 5.275589 -5.968498 5.275589l0 0c-3.296318 0 -5.968506 -2.3619537 -5.968506 -5.275589z" fill-rule="evenodd"/><path fill="#fce5cd" d="m121.72966 129.28871l0 0c0 -2.9136276 2.6721878 -5.275589 5.968506 -5.275589l0 0c3.2963104 0 5.968506 2.3619614 5.968506 5.275589l0 0c0 2.9136353 -2.6721954 5.275589 -5.968506 5.275589l0 0c-3.296318 0 -5.968506 -2.3619537 -5.968506 -5.275589z" fill-rule="evenodd"/><path stroke="#000000" stroke-width="1.0" stroke-linejoin="round" stroke-linecap="butt" d="m121.72966 129.28871l0 0c0 -2.9136276 2.6721878 -5.275589 5.968506 -5.275589l0 0c3.2963104 0 5.968506 2.3619614 5.968506 5.275589l0 0c0 2.9136353 -2.6721954 5.275589 -5.968506 5.275589l0 0c-3.296318 0 -5.968506 -2.3619537 -5.968506 -5.275589z" fill-rule="evenodd"/><path fill="#fce5cd" d="m145.72966 129.28871l0 0c0 -2.9136276 2.6721954 -5.275589 5.968506 -5.275589l0 0c3.2963104 0 5.968506 2.3619614 5.968506 5.275589l0 0c0 2.9136353 -2.6721954 5.275589 -5.968506 5.275589l0 0c-3.2963104 0 -5.968506 -2.3619537 -5.968506 -5.275589z" fill-rule="evenodd"/><path stroke="#000000" stroke-width="1.0" stroke-linejoin="round" stroke-linecap="butt" d="m145.72966 129.28871l0 0c0 -2.9136276 2.6721954 -5.275589 5.968506 -5.275589l0 0c3.2963104 0 5.968506 2.3619614 5.968506 5.275589l0 0c0 2.9136353 -2.6721954 5.275589 -5.968506 5.275589l0 0c-3.2963104 0 -5.968506 -2.3619537 -5.968506 -5.275589z" fill-rule="evenodd"/><path fill="#fce5cd" d="m169.72966 129.28871l0 0c0 -2.9136276 2.6721954 -5.275589 5.968506 -5.275589l0 0c3.2963104 0 5.968506 2.3619614 5.968506 5.275589l0 0c0 2.9136353 -2.6721954 5.275589 -5.968506 5.275589l0 0c-3.2963104 0 -5.968506 -2.3619537 -5.968506 -5.275589z" fill-rule="evenodd"/><path stroke="#000000" stroke-width="1.0" stroke-linejoin="round" stroke-linecap="butt" d="m169.72966 129.28871l0 0c0 -2.9136276 2.6721954 -5.275589 5.968506 -5.275589l0 0c3.2963104 0 5.968506 2.3619614 5.968506 5.275589l0 0c0 2.9136353 -2.6721954 5.275589 -5.968506 5.275589l0 0c-3.2963104 0 -5.968506 -2.3619537 -5.968506 -5.275589z" fill-rule="evenodd"/><path fill="#fce5cd" d="m121.72966 97.28871l0 0c0 -2.9136276 2.6721878 -5.275589 5.968506 -5.275589l0 0c3.2963104 0 5.968506 2.3619614 5.968506 5.275589l0 0c0 2.9136276 -2.6721954 5.2755966 -5.968506 5.2755966l0 0c-3.296318 0 -5.968506 -2.361969 -5.968506 -5.2755966z" fill-rule="evenodd"/><path stroke="#000000" stroke-width="1.0" stroke-linejoin="round" stroke-linecap="butt" d="m121.72966 97.28871l0 0c0 -2.9136276 2.6721878 -5.275589 5.968506 -5.275589l0 0c3.2963104 0 5.968506 2.3619614 5.968506 5.275589l0 0c0 2.9136276 -2.6721954 5.2755966 -5.968506 5.2755966l0 0c-3.296318 0 -5.968506 -2.361969 -5.968506 -5.2755966z" fill-rule="evenodd"/><path fill="#fce5cd" d="m145.72966 97.28871l0 0c0 -2.9136276 2.6721954 -5.275589 5.968506 -5.275589l0 0c3.2963104 0 5.968506 2.3619614 5.968506 5.275589l0 0c0 2.9136276 -2.6721954 5.2755966 -5.968506 5.2755966l0 0c-3.2963104 0 -5.968506 -2.361969 -5.968506 -5.2755966z" fill-rule="evenodd"/><path stroke="#000000" stroke-width="1.0" stroke-linejoin="round" stroke-linecap="butt" d="m145.72966 97.28871l0 0c0 -2.9136276 2.6721954 -5.275589 5.968506 -5.275589l0 0c3.2963104 0 5.968506 2.3619614 5.968506 5.275589l0 0c0 2.9136276 -2.6721954 5.2755966 -5.968506 5.2755966l0 0c-3.2963104 0 -5.968506 -2.361969 -5.968506 -5.2755966z" fill-rule="evenodd"/><path fill="#fce5cd" d="m169.72966 97.28871l0 0c0 -2.9136276 2.6721954 -5.275589 5.968506 -5.275589l0 0c3.2963104 0 5.968506 2.3619614 5.968506 5.275589l0 0c0 2.9136276 -2.6721954 5.2755966 -5.968506 5.2755966l0 0c-3.2963104 0 -5.968506 -2.361969 -5.968506 -5.2755966z" fill-rule="evenodd"/><path stroke="#000000" stroke-width="1.0" stroke-linejoin="round" stroke-linecap="butt" d="m169.72966 97.28871l0 0c0 -2.9136276 2.6721954 -5.275589 5.968506 -5.275589l0 0c3.2963104 0 5.968506 2.3619614 5.968506 5.275589l0 0c0 2.9136276 -2.6721954 5.2755966 -5.968506 5.2755966l0 0c-3.2963104 0 -5.968506 -2.361969 -5.968506 -5.2755966z" fill-rule="evenodd"/><path fill="#000000" fill-opacity="0.0" d="m301.66666 97.28871l42.04724 56.53543" fill-rule="evenodd"/><path stroke="#000000" stroke-width="1.0" stroke-linejoin="round" stroke-linecap="butt" d="m301.66666 97.28871l42.04724 56.53543" fill-rule="evenodd"/><path fill="#fce5cd" d="m425.72964 129.28871l0 0c0 -2.9136276 2.6722107 -5.275589 5.968506 -5.275589l0 0c3.2963257 0 5.968506 2.3619614 5.968506 5.275589l0 0c0 2.9136353 -2.6721802 5.275589 -5.968506 5.275589l0 0c-3.2962952 0 -5.968506 -2.3619537 -5.968506 -5.275589z" fill-rule="evenodd"/><path stroke="#000000" stroke-width="1.0" stroke-linejoin="round" stroke-linecap="butt" d="m425.72964 129.28871l0 0c0 -2.9136276 2.6722107 -5.275589 5.968506 -5.275589l0 0c3.2963257 0 5.968506 2.3619614 5.968506 5.275589l0 0c0 2.9136353 -2.6721802 5.275589 -5.968506 5.275589l0 0c-3.2962952 0 -5.968506 -2.3619537 -5.968506 -5.275589z" fill-rule="evenodd"/><path fill="#fce5cd" d="m377.72964 113.28871l0 0c0 -2.9136276 2.6722107 -5.275589 5.968506 -5.275589l0 0c3.2963257 0 5.968506 2.3619614 5.968506 5.275589l0 0c0 2.9136276 -2.6721802 5.2755966 -5.968506 5.2755966l0 0c-3.2962952 0 -5.968506 -2.361969 -5.968506 -5.2755966z" fill-rule="evenodd"/><path stroke="#000000" stroke-width="1.0" stroke-linejoin="round" stroke-linecap="butt" d="m377.72964 113.28871l0 0c0 -2.9136276 2.6722107 -5.275589 5.968506 -5.275589l0 0c3.2963257 0 5.968506 2.3619614 5.968506 5.275589l0 0c0 2.9136276 -2.6721802 5.2755966 -5.968506 5.2755966l0 0c-3.2962952 0 -5.968506 -2.361969 -5.968506 -5.2755966z" fill-rule="evenodd"/><path fill="#fce5cd" d="m401.72964 113.28871l0 0c0 -2.9136276 2.6722107 -5.275589 5.968506 -5.275589l0 0c3.2963257 0 5.968506 2.3619614 5.968506 5.275589l0 0c0 2.9136276 -2.6721802 5.2755966 -5.968506 5.2755966l0 0c-3.2962952 0 -5.968506 -2.361969 -5.968506 -5.2755966z" fill-rule="evenodd"/><path stroke="#000000" stroke-width="1.0" stroke-linejoin="round" stroke-linecap="butt" d="m401.72964 113.28871l0 0c0 -2.9136276 2.6722107 -5.275589 5.968506 -5.275589l0 0c3.2963257 0 5.968506 2.3619614 5.968506 5.275589l0 0c0 2.9136276 -2.6721802 5.2755966 -5.968506 5.2755966l0 0c-3.2962952 0 -5.968506 -2.361969 -5.968506 -5.2755966z" fill-rule="evenodd"/><path fill="#fce5cd" d="m425.72964 113.28871l0 0c0 -2.9136276 2.6722107 -5.275589 5.968506 -5.275589l0 0c3.2963257 0 5.968506 2.3619614 5.968506 5.275589l0 0c0 2.9136276 -2.6721802 5.2755966 -5.968506 5.2755966l0 0c-3.2962952 0 -5.968506 -2.361969 -5.968506 -5.2755966z" fill-rule="evenodd"/><path stroke="#000000" stroke-width="1.0" stroke-linejoin="round" stroke-linecap="butt" d="m425.72964 113.28871l0 0c0 -2.9136276 2.6722107 -5.275589 5.968506 -5.275589l0 0c3.2963257 0 5.968506 2.3619614 5.968506 5.275589l0 0c0 2.9136276 -2.6721802 5.2755966 -5.968506 5.2755966l0 0c-3.2962952 0 -5.968506 -2.361969 -5.968506 -5.2755966z" fill-rule="evenodd"/><path fill="#fce5cd" d="m401.72964 81.28871l0 0c0 -2.9136276 2.6722107 -5.275589 5.968506 -5.275589l0 0c3.2963257 0 5.968506 2.3619614 5.968506 5.275589l0 0c0 2.9136276 -2.6721802 5.2755966 -5.968506 5.2755966l0 0c-3.2962952 0 -5.968506 -2.361969 -5.968506 -5.2755966z" fill-rule="evenodd"/><path stroke="#000000" stroke-width="1.0" stroke-linejoin="round" stroke-linecap="butt" d="m401.72964 81.28871l0 0c0 -2.9136276 2.6722107 -5.275589 5.968506 -5.275589l0 0c3.2963257 0 5.968506 2.3619614 5.968506 5.275589l0 0c0 2.9136276 -2.6721802 5.2755966 -5.968506 5.2755966l0 0c-3.2962952 0 -5.968506 -2.361969 -5.968506 -5.2755966z" fill-rule="evenodd"/><path fill="#fce5cd" d="m425.72964 81.28871l0 0c0 -2.9136276 2.6722107 -5.275589 5.968506 -5.275589l0 0c3.2963257 0 5.968506 2.3619614 5.968506 5.275589l0 0c0 2.9136276 -2.6721802 5.2755966 -5.968506 5.2755966l0 0c-3.2962952 0 -5.968506 -2.361969 -5.968506 -5.2755966z" fill-rule="evenodd"/><path stroke="#000000" stroke-width="1.0" stroke-linejoin="round" stroke-linecap="butt" d="m425.72964 81.28871l0 0c0 -2.9136276 2.6722107 -5.275589 5.968506 -5.275589l0 0c3.2963257 0 5.968506 2.3619614 5.968506 5.275589l0 0c0 2.9136276 -2.6721802 5.2755966 -5.968506 5.2755966l0 0c-3.2962952 0 -5.968506 -2.361969 -5.968506 -5.2755966z" fill-rule="evenodd"/><path fill="#000000" fill-opacity="0.0" d="m437.66666 129.28871l10.047241 24.53543" fill-rule="evenodd"/><path stroke="#000000" stroke-width="1.0" stroke-linejoin="round" stroke-linecap="butt" d="m437.66666 129.28871l10.047241 24.53543" fill-rule="evenodd"/><path fill="#000000" fill-opacity="0.0" d="m565.6667 97.28871l18.047241 56.53543" fill-rule="evenodd"/><path stroke="#000000" stroke-width="1.0" stroke-linejoin="round" stroke-linecap="butt" d="m565.6667 97.28871l18.047241 56.53543" fill-rule="evenodd"/><path fill="#000000" fill-opacity="0.0" d="m437.66666 49.288715l42.04724 104.53543" fill-rule="evenodd"/><path stroke="#000000" stroke-width="1.0" stroke-linejoin="round" stroke-linecap="butt" d="m437.66666 49.288715l42.04724 104.53543" fill-rule="evenodd"/><path fill="#000000" fill-opacity="0.0" d="m55.99475 42.11811l21.669289 0l0 12.913387l-21.669289 0z" fill-rule="evenodd"/><path fill="#000000" d="m70.63785 52.35811l-1.671875 0l-0.671875 -1.734375l-3.046875 0l-0.625 1.734375l-1.6406288 0l2.9687538 -7.625l1.625 0l3.0625 7.625zm-2.84375 -3.015625l-1.046875 -2.828125l-1.03125 2.828125l2.078125 0z" fill-rule="nonzero"/><path fill="#000000" fill-opacity="0.0" d="m55.99475 58.11811l21.669289 0l0 12.9133835l-21.669289 0z" fill-rule="evenodd"/><path fill="#000000" d="m63.762844 60.73311l3.0468788 0q0.90625 0 1.34375 0.078125q0.453125 0.0625 0.796875 0.3125q0.359375 0.234375 0.59375 0.640625q0.234375 0.390625 0.234375 0.890625q0 0.53125 -0.296875 0.984375q-0.28125 0.4375 -0.78125 0.671875q0.703125 0.203125 1.078125 0.6875q0.375 0.484375 0.375 1.140625q0 0.53125 -0.25 1.03125q-0.234375 0.484375 -0.65625 0.78125q-0.421875 0.28125 -1.03125 0.359375q-0.390625 0.03125 -1.859375 0.046875l-2.5937538 0l0 -7.625zm1.5468788 1.265625l0 1.765625l1.0 0q0.90625 0 1.125 -0.03125q0.390625 -0.046875 0.609375 -0.265625q0.234375 -0.234375 0.234375 -0.59375q0 -0.359375 -0.203125 -0.578125q-0.1875 -0.21875 -0.578125 -0.265625q-0.21875 -0.03125 -1.3125 -0.03125l-0.875 0zm0 3.03125l0 2.046875l1.421875 0q0.828125 0 1.046875 -0.046875q0.34375 -0.0625 0.5625 -0.296875q0.21875 -0.25 0.21875 -0.65625q0 -0.34375 -0.171875 -0.578125q-0.15625 -0.25 -0.484375 -0.359375q-0.3125 -0.109375 -1.359375 -0.109375l-1.234375 0z" fill-rule="nonzero"/><path fill="#000000" fill-opacity="0.0" d="m55.99475 74.11811l21.669289 0l0 12.9133835l-21.669289 0z" fill-rule="evenodd"/><path fill="#000000" d="m68.63785 81.56123l1.5 0.46875q-0.34375 1.25 -1.15625 1.859375q-0.796875 0.59375 -2.015625 0.59375q-1.515625 0 -2.5 -1.03125q-0.9843788 -1.046875 -0.9843788 -2.84375q0 -1.90625 0.9843788 -2.953125q0.984375 -1.0625 2.59375 -1.0625q1.390625 0 2.265625 0.828125q0.53125 0.5 0.78125 1.40625l-1.515625 0.375q-0.140625 -0.59375 -0.578125 -0.9375q-0.421875 -0.34375 -1.03125 -0.34375q-0.859375 0 -1.390625 0.609375q-0.515625 0.609375 -0.515625 1.96875q0 1.4375 0.515625 2.0625q0.515625 0.609375 1.359375 0.609375q0.609375 0 1.046875 -0.390625q0.453125 -0.390625 0.640625 -1.21875z" fill-rule="nonzero"/><path fill="#000000" fill-opacity="0.0" d="m55.99475 90.11811l21.669289 0l0 12.9133835l-21.669289 0z" fill-rule="evenodd"/><path fill="#000000" d="m63.74722 92.73311l2.8125038 0q0.953125 0 1.453125 0.140625q0.671875 0.203125 1.15625 0.703125q0.484375 0.5 0.734375 1.234375q0.25 0.734375 0.25 1.8125q0 0.9375 -0.234375 1.609375q-0.296875 0.84375 -0.828125 1.359375q-0.390625 0.390625 -1.078125 0.609375q-0.515625 0.15625 -1.359375 0.15625l-2.9062538 0l0 -7.625zm1.5468788 1.28125l0 5.0625l1.140625 0q0.65625 0 0.9375 -0.078125q0.375 -0.09375 0.625 -0.3125q0.25 -0.234375 0.40625 -0.734375q0.15625 -0.515625 0.15625 -1.40625q0 -0.875 -0.15625 -1.34375q-0.15625 -0.484375 -0.4375 -0.75q-0.28125 -0.265625 -0.71875 -0.359375q-0.328125 -0.078125 -1.265625 -0.078125l-0.6875 0z" fill-rule="nonzero"/><path fill="#000000" fill-opacity="0.0" d="m55.99475 106.11811l21.669289 0l0 12.9133835l-21.669289 0z" fill-rule="evenodd"/><path fill="#000000" d="m64.05683 116.35811l0 -7.625l5.65625 0l0 1.28125l-4.125 0l0 1.703125l3.828125 0l0 1.28125l-3.828125 0l0 2.078125l4.265625 0l0 1.28125l-5.796875 0z" fill-rule="nonzero"/><path fill="#000000" fill-opacity="0.0" d="m55.99475 122.11811l21.669289 0l0 12.9133835l-21.669289 0z" fill-rule="evenodd"/><path fill="#000000" d="m64.35602 132.35811l0 -7.625l5.234375 0l0 1.28125l-3.6875 0l0 1.8125l3.1875 0l0 1.296875l-3.1875 0l0 3.234375l-1.546875 0z" fill-rule="nonzero"/><path fill="#000000" fill-opacity="0.0" d="m15.107864 144.68996l73.25984 0l0 25.858261l-73.25984 0z" fill-rule="evenodd"/><path fill="#000000" d="m28.146645 152.44559l1.5 -0.140625q0.125 0.75 0.53125 1.109375q0.421875 0.34375 1.125 0.34375q0.75 0 1.125 -0.3125q0.375 -0.3125 0.375 -0.734375q0 -0.265625 -0.15625 -0.453125q-0.15625 -0.1875 -0.5625 -0.328125q-0.265625 -0.09375 -1.234375 -0.34375q-1.234375 -0.296875 -1.734375 -0.75q-0.703125 -0.625 -0.703125 -1.53125q0 -0.59375 0.328125 -1.09375q0.34375 -0.515625 0.953125 -0.78125q0.625 -0.265625 1.5 -0.265625q1.4375 0 2.15625 0.640625q0.734375 0.625 0.78125 1.671875l-1.546875 0.078125q-0.09375 -0.59375 -0.421875 -0.84375q-0.328125 -0.265625 -0.984375 -0.265625q-0.671875 0 -1.046875 0.28125q-0.234375 0.171875 -0.234375 0.46875q0 0.265625 0.21875 0.46875q0.296875 0.234375 1.421875 0.5q1.125 0.265625 1.65625 0.5625q0.546875 0.28125 0.84375 0.78125q0.3125 0.484375 0.3125 1.203125q0 0.65625 -0.375 1.234375q-0.359375 0.5625 -1.03125 0.84375q-0.65625 0.28125 -1.65625 0.28125q-1.4375 0 -2.21875 -0.671875q-0.78125 -0.671875 -0.921875 -1.953125zm6.7951355 -3.046875l1.546875 0l1.328125 3.921875l1.28125 -3.921875l1.515625 0l-1.953125 5.328125l-0.34375 0.953125q-0.1875 0.484375 -0.375 0.734375q-0.171875 0.265625 -0.390625 0.421875q-0.21875 0.15625 -0.5625 0.25q-0.328125 0.09375 -0.734375 0.09375q-0.421875 0 -0.828125 -0.09375l-0.140625 -1.140625q0.34375 0.0625 0.625 0.0625q0.515625 0 0.75 -0.296875q0.25 -0.296875 0.375 -0.765625l-2.09375 -5.546875zm11.645248 5.53125l-1.46875 0l0 -2.8125q0 -0.90625 -0.09375 -1.15625q-0.09375 -0.265625 -0.3125 -0.40625q-0.203125 -0.15625 -0.5 -0.15625q-0.375 0 -0.6875 0.21875q-0.296875 0.203125 -0.40625 0.546875q-0.109375 0.34375 -0.109375 1.265625l0 2.5l-1.46875 0l0 -5.53125l1.359375 0l0 0.8125q0.71875 -0.9375 1.828125 -0.9375q0.484375 0 0.875 0.1875q0.40625 0.171875 0.609375 0.4375q0.203125 0.265625 0.28125 0.609375q0.09375 0.34375 0.09375 0.984375l0 3.4375zm4.009262 -5.53125l0 1.171875l-1.0 0l0 2.21875q0 0.6875 0.03125 0.796875q0.03125 0.109375 0.125 0.1875q0.109375 0.0625 0.25 0.0625q0.203125 0 0.59375 -0.140625l0.125 1.140625q-0.515625 0.21875 -1.15625 0.21875q-0.390625 0 -0.71875 -0.125q-0.3125 -0.140625 -0.46875 -0.34375q-0.140625 -0.21875 -0.203125 -0.578125q-0.046875 -0.25 -0.046875 -1.03125l0 -2.40625l-0.671875 0l0 -1.171875l0.671875 0l0 -1.09375l1.46875 -0.859375l0 1.953125l1.0 0zm2.4704895 -2.09375l0 2.796875q0.703125 -0.828125 1.6875 -0.828125q0.515625 0 0.921875 0.1875q0.40625 0.1875 0.609375 0.484375q0.203125 0.296875 0.28125 0.65625q0.078125 0.34375 0.078125 1.09375l0 3.234375l-1.46875 0l0 -2.921875q0 -0.859375 -0.09375 -1.09375q-0.078125 -0.234375 -0.296875 -0.375q-0.203125 -0.140625 -0.515625 -0.140625q-0.359375 0 -0.65625 0.1875q-0.28125 0.171875 -0.421875 0.53125q-0.125 0.34375 -0.125 1.046875l0 2.765625l-1.453125 0l0 -7.625l1.453125 0zm8.259262 5.859375l1.453125 0.25q-0.28125 0.796875 -0.890625 1.21875q-0.609375 0.421875 -1.515625 0.421875q-1.4375 0 -2.125 -0.9375q-0.546875 -0.765625 -0.546875 -1.90625q0 -1.375 0.71875 -2.15625q0.71875 -0.78125 1.8125 -0.78125q1.234375 0 1.9375 0.828125q0.71875 0.8125 0.6875 2.484375l-3.65625 0q0.015625 0.65625 0.34375 1.015625q0.34375 0.359375 0.84375 0.359375q0.34375 0 0.578125 -0.1875q0.234375 -0.1875 0.359375 -0.609375zm0.078125 -1.46875q-0.015625 -0.640625 -0.328125 -0.96875q-0.3125 -0.328125 -0.765625 -0.328125q-0.46875 0 -0.78125 0.34375q-0.3125 0.359375 -0.3125 0.953125l2.1875 0zm5.1764984 -2.296875l0 1.171875l-1.0 0l0 2.21875q0 0.6875 0.03125 0.796875q0.03125 0.109375 0.125 0.1875q0.109375 0.0625 0.25 0.0625q0.203125 0 0.59375 -0.140625l0.125 1.140625q-0.515625 0.21875 -1.15625 0.21875q-0.390625 0 -0.71875 -0.125q-0.3125 -0.140625 -0.46875 -0.34375q-0.140625 -0.21875 -0.203125 -0.578125q-0.046875 -0.25 -0.046875 -1.03125l0 -2.40625l-0.671875 0l0 -1.171875l0.671875 0l0 -1.09375l1.46875 -0.859375l0 1.953125l1.0 0zm1.0173645 -0.75l0 -1.34375l1.46875 0l0 1.34375l-1.46875 0zm0 6.28125l0 -5.53125l1.46875 0l0 5.53125l-1.46875 0zm7.7731476 -3.890625l-1.4375 0.265625q-0.078125 -0.4375 -0.34375 -0.65625q-0.25 -0.21875 -0.65625 -0.21875q-0.546875 0 -0.875 0.375q-0.3125 0.375 -0.3125 1.265625q0 0.984375 0.328125 1.390625q0.328125 0.40625 0.875 0.40625q0.421875 0 0.6875 -0.234375q0.265625 -0.25 0.375 -0.828125l1.4375 0.25q-0.21875 0.984375 -0.859375 1.5q-0.640625 0.5 -1.703125 0.5q-1.203125 0 -1.9375 -0.765625q-0.71875 -0.765625 -0.71875 -2.109375q0 -1.375 0.71875 -2.140625q0.734375 -0.765625 1.96875 -0.765625q1.0 0 1.59375 0.4375q0.609375 0.4375 0.859375 1.328125z" fill-rule="nonzero"/><path fill="#000000" d="m47.429337 167.72995l0 -6.34375l-2.265625 0l0 -1.28125l6.0625 0l0 1.28125l-2.265625 0l0 6.34375l-1.53125 0zm4.009262 0l2.609375 -3.984375l-2.359375 -3.640625l1.796875 0l1.53125 2.453125l1.5 -2.453125l1.78125 0l-2.375 3.703125l2.609375 3.921875l-1.859375 0l-1.6875 -2.640625l-1.703125 2.640625l-1.84375 0z" fill-rule="nonzero"/><path fill="#fce5cd" d="m337.72964 159.09186l0 0c0 -2.91362 2.6722107 -5.275589 5.968506 -5.275589l0 0c3.2963257 0 5.968506 2.361969 5.968506 5.275589l0 0c0 2.9136353 -2.6721802 5.275589 -5.968506 5.275589l0 0c-3.2962952 0 -5.968506 -2.3619537 -5.968506 -5.275589z" fill-rule="evenodd"/><path stroke="#000000" stroke-width="1.0" stroke-linejoin="round" stroke-linecap="butt" d="m337.72964 159.09186l0 0c0 -2.91362 2.6722107 -5.275589 5.968506 -5.275589l0 0c3.2963257 0 5.968506 2.361969 5.968506 5.275589l0 0c0 2.9136353 -2.6721802 5.275589 -5.968506 5.275589l0 0c-3.2962952 0 -5.968506 -2.3619537 -5.968506 -5.275589z" fill-rule="evenodd"/><path fill="#000000" fill-opacity="0.0" d="m181.66667 65.28871l46.11023 88.409454" fill-rule="evenodd"/><path stroke="#000000" stroke-width="1.0" stroke-linejoin="round" stroke-linecap="butt" d="m181.66667 65.28871l46.11023 88.409454" fill-rule="evenodd"/><path fill="#000000" fill-opacity="0.0" d="m181.66667 65.28871l0 64.0" fill-rule="evenodd"/><path stroke="#000000" stroke-width="1.0" stroke-linejoin="round" stroke-linecap="butt" d="m181.66667 65.28871l0 64.0" fill-rule="evenodd"/><path fill="#000000" fill-opacity="0.0" d="m181.66667 129.28871l14.1102295 24.409454" fill-rule="evenodd"/><path stroke="#000000" stroke-width="1.0" stroke-linejoin="round" stroke-linecap="butt" d="m181.66667 129.28871l14.1102295 24.409454" fill-rule="evenodd"/><path fill="#000000" fill-opacity="0.0" d="m195.76115 153.68242l32.0 0" fill-rule="evenodd"/><path stroke="#000000" stroke-width="1.0" stroke-linejoin="round" stroke-linecap="butt" d="m195.76115 153.68242l32.0 0" fill-rule="evenodd"/><path fill="#000000" fill-opacity="0.0" d="m301.66666 97.28871l0 16.0" fill-rule="evenodd"/><path stroke="#000000" stroke-width="1.0" stroke-linejoin="round" stroke-linecap="butt" d="m301.66666 97.28871l0 16.0" fill-rule="evenodd"/><path fill="#000000" fill-opacity="0.0" d="m311.69815 153.81627l32.0 0" fill-rule="evenodd"/><path stroke="#000000" stroke-width="1.0" stroke-linejoin="round" stroke-linecap="butt" d="m311.69815 153.81627l32.0 0" fill-rule="evenodd"/><path fill="#000000" fill-opacity="0.0" d="m437.66666 49.288715l0 80.0" fill-rule="evenodd"/><path stroke="#000000" stroke-width="1.0" stroke-linejoin="round" stroke-linecap="butt" d="m437.66666 49.288715l0 80.0" fill-rule="evenodd"/><path fill="#000000" fill-opacity="0.0" d="m447.69815 153.81627l32.0 0" fill-rule="evenodd"/><path stroke="#000000" stroke-width="1.0" stroke-linejoin="round" stroke-linecap="butt" d="m447.69815 153.81627l32.0 0" fill-rule="evenodd"/><path fill="#fce5cd" d="m593.7297 159.09186l0 0c0 -2.91362 2.6721802 -5.275589 5.968506 -5.275589l0 0c3.2963257 0 5.968506 2.361969 5.968506 5.275589l0 0c0 2.9136353 -2.6721802 5.275589 -5.968506 5.275589l0 0c-3.2963257 0 -5.968506 -2.3619537 -5.968506 -5.275589z" fill-rule="evenodd"/><path stroke="#000000" stroke-width="1.0" stroke-linejoin="round" stroke-linecap="butt" d="m593.7297 159.09186l0 0c0 -2.91362 2.6721802 -5.275589 5.968506 -5.275589l0 0c3.2963257 0 5.968506 2.361969 5.968506 5.275589l0 0c0 2.9136353 -2.6721802 5.275589 -5.968506 5.275589l0 0c-3.2963257 0 -5.968506 -2.3619537 -5.968506 -5.275589z" fill-rule="evenodd"/><path fill="#fce5cd" d="m609.7297 159.09186l0 0c0 -2.91362 2.6721802 -5.275589 5.968506 -5.275589l0 0c3.2963257 0 5.968506 2.361969 5.968506 5.275589l0 0c0 2.9136353 -2.6721802 5.275589 -5.968506 5.275589l0 0c-3.2963257 0 -5.968506 -2.3619537 -5.968506 -5.275589z" fill-rule="evenodd"/><path stroke="#000000" stroke-width="1.0" stroke-linejoin="round" stroke-linecap="butt" d="m609.7297 159.09186l0 0c0 -2.91362 2.6721802 -5.275589 5.968506 -5.275589l0 0c3.2963257 0 5.968506 2.361969 5.968506 5.275589l0 0c0 2.9136353 -2.6721802 5.275589 -5.968506 5.275589l0 0c-3.2963257 0 -5.968506 -2.3619537 -5.968506 -5.275589z" fill-rule="evenodd"/><path fill="#000000" fill-opacity="0.0" d="m565.65094 65.28084l50.04724 88.53543" fill-rule="evenodd"/><path stroke="#000000" stroke-width="1.0" stroke-linejoin="round" stroke-linecap="butt" d="m565.65094 65.28084l50.04724 88.53543" fill-rule="evenodd"/><path fill="#000000" fill-opacity="0.0" d="m583.6982 153.81627l32.0 0" fill-rule="evenodd"/><path stroke="#000000" stroke-width="1.0" stroke-linejoin="round" stroke-linecap="butt" d="m583.6982 153.81627l32.0 0" fill-rule="evenodd"/><path fill="#f3f3f3" d="m360.22308 247.05536l0 0c0 -6.5434723 5.304535 -11.848007 11.848022 -11.848007l319.89453 0c3.142273 0 6.155884 1.2482605 8.377808 3.4701996c2.2219238 2.2219238 3.4702148 5.2355194 3.4702148 8.377808l0 47.390594c0 6.5434875 -5.3045654 11.848022 -11.848022 11.848022l-319.89453 0c-6.5434875 0 -11.848022 -5.304535 -11.848022 -11.848022z" fill-rule="evenodd"/><path stroke="#000000" stroke-width="1.0" stroke-linejoin="round" stroke-linecap="butt" d="m360.22308 247.05536l0 0c0 -6.5434723 5.304535 -11.848007 11.848022 -11.848007l319.89453 0c3.142273 0 6.155884 1.2482605 8.377808 3.4701996c2.2219238 2.2219238 3.4702148 5.2355194 3.4702148 8.377808l0 47.390594c0 6.5434875 -5.3045654 11.848022 -11.848022 11.848022l-319.89453 0c-6.5434875 0 -11.848022 -5.304535 -11.848022 -11.848022z" fill-rule="evenodd"/><path fill="#000000" d="m513.3594 299.6238l0 -9.546875l3.59375 0q1.09375 0 1.75 0.296875q0.65625 0.28125 1.03125 0.890625q0.375 0.609375 0.375 1.265625q0 0.609375 -0.34375 1.15625q-0.328125 0.53125 -0.984375 0.859375q0.859375 0.25 1.328125 0.875q0.46875 0.609375 0.46875 1.4375q0 0.671875 -0.296875 1.25q-0.28125 0.578125 -0.703125 0.890625q-0.40625 0.3125 -1.03125 0.46875q-0.625 0.15625 -1.546875 0.15625l-3.640625 0zm1.265625 -5.53125l2.0625 0q0.84375 0 1.203125 -0.109375q0.484375 -0.140625 0.71875 -0.46875q0.25 -0.34375 0.25 -0.84375q0 -0.46875 -0.234375 -0.828125q-0.21875 -0.359375 -0.640625 -0.5q-0.421875 -0.140625 -1.453125 -0.140625l-1.90625 0l0 2.890625zm0 4.40625l2.375 0q0.609375 0 0.859375 -0.046875q0.4375 -0.078125 0.734375 -0.25q0.296875 -0.1875 0.484375 -0.53125q0.1875 -0.359375 0.1875 -0.8125q0 -0.53125 -0.28125 -0.921875q-0.265625 -0.40625 -0.75 -0.5625q-0.484375 -0.15625 -1.40625 -0.15625l-2.203125 0l0 3.28125zm10.4053955 1.125l-3.6875 -9.546875l1.359375 0l2.484375 6.9375q0.296875 0.828125 0.5 1.5625q0.21875 -0.78125 0.515625 -1.5625l2.578125 -6.9375l1.28125 0l-3.734375 9.546875l-1.296875 0zm6.1553345 0l0 -9.546875l1.296875 0l5.015625 7.5l0 -7.5l1.203125 0l0 9.546875l-1.296875 0l-5.015625 -7.5l0 7.5l-1.203125 0zm9.031433 -2.859375l0 -1.1875l3.59375 0l0 1.1875l-3.59375 0zm8.9852295 2.859375l-1.171875 0l0 -7.46875q-0.421875 0.40625 -1.109375 0.8125q-0.6875 0.40625 -1.234375 0.609375l0 -1.140625q0.984375 -0.453125 1.71875 -1.109375q0.734375 -0.671875 1.03125 -1.28125l0.765625 0l0 9.578125z" fill-rule="nonzero"/><path fill="#f3f3f3" d="m360.22308 332.7627l0 0c0 -6.543457 5.304535 -11.847992 11.848022 -11.847992l319.89453 0c3.142273 0 6.155884 1.2482605 8.377808 3.4701843c2.2219238 2.2219543 3.4702148 5.2355347 3.4702148 8.377808l0 47.390625c0 6.543457 -5.3045654 11.847992 -11.848022 11.847992l-319.89453 0c-6.5434875 0 -11.848022 -5.304535 -11.848022 -11.847992z" fill-rule="evenodd"/><path stroke="#000000" stroke-width="1.0" stroke-linejoin="round" stroke-linecap="butt" d="m360.22308 332.7627l0 0c0 -6.543457 5.304535 -11.847992 11.848022 -11.847992l319.89453 0c3.142273 0 6.155884 1.2482605 8.377808 3.4701843c2.2219238 2.2219543 3.4702148 5.2355347 3.4702148 8.377808l0 47.390625c0 6.543457 -5.3045654 11.847992 -11.848022 11.847992l-319.89453 0c-6.5434875 0 -11.848022 -5.304535 -11.848022 -11.847992z" fill-rule="evenodd"/><path fill="#000000" d="m513.3594 385.33115l0 -9.546875l3.59375 0q1.09375 0 1.75 0.296875q0.65625 0.28125 1.03125 0.890625q0.375 0.609375 0.375 1.265625q0 0.609375 -0.34375 1.15625q-0.328125 0.53125 -0.984375 0.859375q0.859375 0.25 1.328125 0.875q0.46875 0.609375 0.46875 1.4375q0 0.671875 -0.296875 1.25q-0.28125 0.578125 -0.703125 0.890625q-0.40625 0.3125 -1.03125 0.46875q-0.625 0.15625 -1.546875 0.15625l-3.640625 0zm1.265625 -5.53125l2.0625 0q0.84375 0 1.203125 -0.109375q0.484375 -0.140625 0.71875 -0.46875q0.25 -0.34375 0.25 -0.84375q0 -0.46875 -0.234375 -0.828125q-0.21875 -0.359375 -0.640625 -0.5q-0.421875 -0.140625 -1.453125 -0.140625l-1.90625 0l0 2.890625zm0 4.40625l2.375 0q0.609375 0 0.859375 -0.046875q0.4375 -0.078125 0.734375 -0.25q0.296875 -0.1875 0.484375 -0.53125q0.1875 -0.359375 0.1875 -0.8125q0 -0.53125 -0.28125 -0.921875q-0.265625 -0.40625 -0.75 -0.5625q-0.484375 -0.15625 -1.40625 -0.15625l-2.203125 0l0 3.28125zm10.4053955 1.125l-3.6875 -9.546875l1.359375 0l2.484375 6.9375q0.296875 0.828125 0.5 1.5625q0.21875 -0.78125 0.515625 -1.5625l2.578125 -6.9375l1.28125 0l-3.734375 9.546875l-1.296875 0zm6.1553345 0l0 -9.546875l1.296875 0l5.015625 7.5l0 -7.5l1.203125 0l0 9.546875l-1.296875 0l-5.015625 -7.5l0 7.5l-1.203125 0zm9.031433 -2.859375l0 -1.1875l3.59375 0l0 1.1875l-3.59375 0zm10.7196045 1.734375l0 1.125l-6.296875 0q-0.015625 -0.421875 0.140625 -0.8125q0.234375 -0.640625 0.765625 -1.265625q0.53125 -0.625 1.53125 -1.453125q1.5625 -1.265625 2.109375 -2.015625q0.546875 -0.75 0.546875 -1.40625q0 -0.703125 -0.5 -1.171875q-0.5 -0.484375 -1.296875 -0.484375q-0.859375 0 -1.375 0.515625q-0.5 0.5 -0.5 1.390625l-1.203125 -0.109375q0.125 -1.359375 0.921875 -2.0625q0.8125 -0.703125 2.171875 -0.703125q1.375 0 2.171875 0.765625q0.8125 0.75 0.8125 1.875q0 0.578125 -0.234375 1.140625q-0.234375 0.546875 -0.78125 1.15625q-0.546875 0.609375 -1.8125 1.671875q-1.046875 0.890625 -1.359375 1.21875q-0.296875 0.3125 -0.484375 0.625l4.671875 0z" fill-rule="nonzero"/><path fill="#f3f3f3" d="m360.22308 418.4727l0 0c0 -6.5434875 5.304535 -11.848022 11.848022 -11.848022l319.89453 0c3.142273 0 6.155884 1.248291 8.377808 3.4702148c2.2219238 2.2219238 3.4702148 5.235504 3.4702148 8.377808l0 47.390594c0 6.543457 -5.3045654 11.847992 -11.848022 11.847992l-319.89453 0c-6.5434875 0 -11.848022 -5.304535 -11.848022 -11.847992z" fill-rule="evenodd"/><path stroke="#000000" stroke-width="1.0" stroke-linejoin="round" stroke-linecap="butt" d="m360.22308 418.4727l0 0c0 -6.5434875 5.304535 -11.848022 11.848022 -11.848022l319.89453 0c3.142273 0 6.155884 1.248291 8.377808 3.4702148c2.2219238 2.2219238 3.4702148 5.235504 3.4702148 8.377808l0 47.390594c0 6.543457 -5.3045654 11.847992 -11.848022 11.847992l-319.89453 0c-6.5434875 0 -11.848022 -5.304535 -11.848022 -11.847992z" fill-rule="evenodd"/><path fill="#000000" d="m523.4245 471.04114l0 -9.546875l3.28125 0q1.109375 0 1.703125 0.140625q0.8125 0.1875 1.390625 0.6875q0.765625 0.640625 1.140625 1.640625q0.375 0.984375 0.375 2.25q0 1.09375 -0.265625 1.9375q-0.25 0.828125 -0.65625 1.390625q-0.390625 0.546875 -0.859375 0.859375q-0.46875 0.3125 -1.140625 0.484375q-0.65625 0.15625 -1.53125 0.15625l-3.4375 0zm1.265625 -1.125l2.03125 0q0.9375 0 1.46875 -0.171875q0.546875 -0.1875 0.875 -0.5q0.4375 -0.453125 0.6875 -1.203125q0.25 -0.765625 0.25 -1.84375q0 -1.5 -0.5 -2.296875q-0.484375 -0.8125 -1.1875 -1.078125q-0.5 -0.203125 -1.625 -0.203125l-2.0 0l0 7.296875zm8.343872 1.125l0 -9.546875l1.296875 0l5.015625 7.5l0 -7.5l1.203125 0l0 9.546875l-1.296875 0l-5.015625 -7.5l0 7.5l-1.203125 0z" fill-rule="nonzero"/><path fill="#000000" fill-opacity="0.0" d="m227.76115 164.2336l132.47243 106.5197" fill-rule="evenodd"/><path stroke="#000000" stroke-width="1.0" stroke-linejoin="round" stroke-linecap="butt" d="m227.76115 164.2336l127.796585 102.75987" fill-rule="evenodd"/><path fill="#000000" stroke="#000000" stroke-width="1.0" stroke-linecap="butt" d="m354.52267 268.28067l4.5716553 1.5565186l-2.5015564 -4.130951z" fill-rule="evenodd"/><path fill="#000000" fill-opacity="0.0" d="m211.76115 164.2336l148.47243 192.22047" fill-rule="evenodd"/><path stroke="#000000" stroke-width="1.0" stroke-linejoin="round" stroke-linecap="butt" d="m211.76115 164.2336l144.8047 187.47203" fill-rule="evenodd"/><path fill="#000000" stroke="#000000" stroke-width="1.0" stroke-linecap="butt" d="m355.25867 352.7153l4.081299 2.5818176l-1.466919 -4.6011963z" fill-rule="evenodd"/><path fill="#000000" fill-opacity="0.0" d="m195.76115 164.2336l164.47243 277.92126" fill-rule="evenodd"/><path stroke="#000000" stroke-width="1.0" stroke-linejoin="round" stroke-linecap="butt" d="m195.76115 164.2336l161.41667 272.7577" fill-rule="evenodd"/><path fill="#000000" stroke="#000000" stroke-width="1.0" stroke-linecap="butt" d="m355.75635 437.83252l3.7326965 3.0642395l-0.88974 -4.7466736z" fill-rule="evenodd"/><path fill="#fce5cd" d="m553.7297 97.28871l0 0c0 -2.9136276 2.6721802 -5.275589 5.968506 -5.275589l0 0c3.2963257 0 5.968506 2.3619614 5.968506 5.275589l0 0c0 2.9136276 -2.6721802 5.2755966 -5.968506 5.2755966l0 0c-3.2963257 0 -5.968506 -2.361969 -5.968506 -5.2755966z" fill-rule="evenodd"/><path stroke="#000000" stroke-width="1.0" stroke-linejoin="round" stroke-linecap="butt" d="m553.7297 97.28871l0 0c0 -2.9136276 2.6721802 -5.275589 5.968506 -5.275589l0 0c3.2963257 0 5.968506 2.3619614 5.968506 5.275589l0 0c0 2.9136276 -2.6721802 5.2755966 -5.968506 5.2755966l0 0c-3.2963257 0 -5.968506 -2.361969 -5.968506 -5.2755966z" fill-rule="evenodd"/><path fill="#000000" fill-opacity="0.0" d="m565.6667 65.28871l0 32.0" fill-rule="evenodd"/><path stroke="#000000" stroke-width="1.0" stroke-linejoin="round" stroke-linecap="butt" d="m565.6667 65.28871l0 32.0" fill-rule="evenodd"/><path fill="#000000" fill-opacity="0.0" d="m128.69292 3.6351707l73.25984 0l0 35.559055l-73.25984 0z" fill-rule="evenodd"/><path fill="#000000" d="m138.66167 25.43517l0 -9.546874l3.59375 0q1.09375 0 1.75 0.29687405q0.65625 0.28125 1.03125 0.890625q0.375 0.609375 0.375 1.265625q0 0.609375 -0.34375 1.15625q-0.328125 0.53125 -0.984375 0.859375q0.859375 0.25 1.328125 0.875q0.46875 0.609375 0.46875 1.4375q0 0.671875 -0.296875 1.25q-0.28125 0.578125 -0.703125 0.890625q-0.40625 0.3125 -1.03125 0.46875q-0.625 0.15625 -1.546875 0.15625l-3.640625 0zm1.265625 -5.53125l2.0625 0q0.84375 0 1.203125 -0.109375q0.484375 -0.140625 0.71875 -0.46875q0.25 -0.34375 0.25 -0.84375q0 -0.46875 -0.234375 -0.828125q-0.21875 -0.359375 -0.640625 -0.5q-0.421875 -0.140625 -1.453125 -0.140625l-1.90625 0l0 2.890625zm0 4.40625l2.375 0q0.609375 0 0.859375 -0.046875q0.4375 -0.078125 0.734375 -0.25q0.296875 -0.1875 0.484375 -0.53125q0.1875 -0.359375 0.1875 -0.8125q0 -0.53125 -0.28125 -0.921875q-0.265625 -0.40625 -0.75 -0.5625q-0.484375 -0.15625 -1.40625 -0.15625l-2.203125 0l0 3.28125zm7.5147552 1.125l0 -9.546874l1.171875 0l0 9.546874l-1.171875 0zm2.539215 -3.453125q0 -1.921875 1.078125 -2.84375q0.890625 -0.765625 2.171875 -0.765625q1.421875 0 2.328125 0.9375q0.90625 0.921875 0.90625 2.578125q0 1.328125 -0.40625 2.09375q-0.390625 0.765625 -1.15625 1.1875q-0.765625 0.421875 -1.671875 0.421875q-1.453125 0 -2.359375 -0.921875q-0.890625 -0.9375 -0.890625 -2.6875zm1.203125 0q0 1.328125 0.578125 1.984375q0.59375 0.65625 1.46875 0.65625q0.875 0 1.453125 -0.65625q0.578125 -0.671875 0.578125 -2.03125q0 -1.28125 -0.59375 -1.9375q-0.578125 -0.65625 -1.4375 -0.65625q-0.875 0 -1.46875 0.65625q-0.578125 0.65625 -0.578125 1.984375zm11.162476 0.921875l1.15625 0.15625q-0.1875 1.1875 -0.96875 1.859375q-0.78125 0.671875 -1.921875 0.671875q-1.40625 0 -2.28125 -0.921875q-0.859375 -0.9375 -0.859375 -2.65625q0 -1.125 0.375 -1.96875q0.375 -0.84375 1.125 -1.25q0.765625 -0.421875 1.65625 -0.421875q1.125 0 1.84375 0.578125q0.71875 0.5625 0.921875 1.609375l-1.140625 0.171875q-0.171875 -0.703125 -0.59375 -1.046875q-0.40625 -0.359375 -0.984375 -0.359375q-0.890625 0 -1.453125 0.640625q-0.546875 0.640625 -0.546875 2.0q0 1.40625 0.53125 2.03125q0.546875 0.625 1.40625 0.625q0.6875 0 1.140625 -0.421875q0.46875 -0.421875 0.59375 -1.296875zm2.1640625 2.53125l0 -9.546874l1.171875 0l0 5.453124l2.765625 -2.8125l1.515625 0l-2.640625 2.5625l2.90625 4.34375l-1.4375 0l-2.28125 -3.53125l-0.828125 0.796875l0 2.734375l-1.171875 0zm14.445175 0l-1.171875 0l0 -7.46875q-0.421875 0.40625 -1.109375 0.8125q-0.6875 0.40625 -1.234375 0.609375l0 -1.140625q0.984375 -0.453125 1.71875 -1.109375q0.734375 -0.671875 1.03125 -1.281249l0.765625 0l0 9.578124z" fill-rule="nonzero"/><path fill="#000000" fill-opacity="0.0" d="m272.62073 5.5433073l73.25986 0l0 35.559055l-73.25986 0z" fill-rule="evenodd"/><path fill="#000000" d="m282.58948 27.343306l0 -9.546875l3.59375 0q1.09375 0 1.75 0.296875q0.65625 0.28125 1.03125 0.890625q0.375 0.609375 0.375 1.265625q0 0.609375 -0.34375 1.15625q-0.328125 0.53125 -0.984375 0.859375q0.859375 0.25 1.328125 0.875q0.46875 0.609375 0.46875 1.4375q0 0.671875 -0.296875 1.25q-0.28125 0.578125 -0.703125 0.890625q-0.40625 0.3125 -1.03125 0.46875q-0.625 0.15625 -1.546875 0.15625l-3.640625 0zm1.265625 -5.53125l2.0625 0q0.84375 0 1.203125 -0.109375q0.484375 -0.140625 0.71875 -0.46875q0.25 -0.34375 0.25 -0.84375q0 -0.46875 -0.234375 -0.828125q-0.21875 -0.359375 -0.640625 -0.5q-0.421875 -0.140625 -1.453125 -0.140625l-1.90625 0l0 2.890625zm0 4.40625l2.375 0q0.609375 0 0.859375 -0.046875q0.4375 -0.078125 0.734375 -0.25q0.296875 -0.1875 0.484375 -0.53125q0.1875 -0.359375 0.1875 -0.8125q0 -0.53125 -0.28125 -0.921875q-0.265625 -0.40625 -0.75 -0.5625q-0.484375 -0.15625 -1.40625 -0.15625l-2.203125 0l0 3.28125zm7.5147705 1.125l0 -9.546875l1.171875 0l0 9.546875l-1.171875 0zm2.539215 -3.453125q0 -1.921875 1.078125 -2.84375q0.890625 -0.765625 2.171875 -0.765625q1.421875 0 2.328125 0.9375q0.90625 0.921875 0.90625 2.578125q0 1.328125 -0.40625 2.09375q-0.390625 0.765625 -1.15625 1.1875q-0.765625 0.421875 -1.671875 0.421875q-1.453125 0 -2.359375 -0.921875q-0.890625 -0.9375 -0.890625 -2.6875zm1.203125 0q0 1.328125 0.578125 1.984375q0.59375 0.65625 1.46875 0.65625q0.875 0 1.453125 -0.65625q0.578125 -0.671875 0.578125 -2.03125q0 -1.28125 -0.59375 -1.9375q-0.578125 -0.65625 -1.4375 -0.65625q-0.875 0 -1.46875 0.65625q-0.578125 0.65625 -0.578125 1.984375zm11.162476 0.921875l1.15625 0.15625q-0.1875 1.1875 -0.96875 1.859375q-0.78125 0.671875 -1.921875 0.671875q-1.40625 0 -2.28125 -0.921875q-0.859375 -0.9375 -0.859375 -2.65625q0 -1.125 0.375 -1.96875q0.375 -0.84375 1.125 -1.25q0.765625 -0.421875 1.65625 -0.421875q1.125 0 1.84375 0.578125q0.71875 0.5625 0.921875 1.609375l-1.140625 0.171875q-0.171875 -0.703125 -0.59375 -1.046875q-0.40625 -0.359375 -0.984375 -0.359375q-0.890625 0 -1.453125 0.640625q-0.546875 0.640625 -0.546875 2.0q0 1.40625 0.53125 2.03125q0.546875 0.625 1.40625 0.625q0.6875 0 1.140625 -0.421875q0.46875 -0.421875 0.59375 -1.296875zm2.1640625 2.53125l0 -9.546875l1.171875 0l0 5.453125l2.765625 -2.8125l1.515625 0l-2.640625 2.5625l2.90625 4.34375l-1.4375 0l-2.28125 -3.53125l-0.828125 0.796875l0 2.734375l-1.171875 0zm16.179535 -1.125l0 1.125l-6.296875 0q-0.015625 -0.421875 0.140625 -0.8125q0.234375 -0.640625 0.765625 -1.265625q0.53125 -0.625 1.53125 -1.453125q1.5625 -1.265625 2.109375 -2.015625q0.546875 -0.75 0.546875 -1.40625q0 -0.703125 -0.5 -1.171875q-0.5 -0.484375 -1.296875 -0.484375q-0.859375 0 -1.375 0.515625q-0.5 0.5 -0.5 1.390625l-1.203125 -0.109375q0.125 -1.359375 0.921875 -2.0625q0.8125 -0.703125 2.171875 -0.703125q1.375 0 2.171875 0.765625q0.8125 0.75 0.8125 1.875q0 0.578125 -0.234375 1.140625q-0.234375 0.546875 -0.78125 1.15625q-0.546875 0.609375 -1.8125 1.671875q-1.046875 0.890625 -1.359375 1.21875q-0.296875 0.3125 -0.484375 0.625l4.671875 0z" fill-rule="nonzero"/><path fill="#000000" fill-opacity="0.0" d="m404.41733 6.1732283l73.25983 0l0 35.559055l-73.25983 0z" fill-rule="evenodd"/><path fill="#000000" d="m414.38608 27.973228l0 -9.546875l3.59375 0q1.09375 0 1.75 0.296875q0.65625 0.28125 1.03125 0.890625q0.375 0.609375 0.375 1.265625q0 0.609375 -0.34375 1.15625q-0.328125 0.53125 -0.984375 0.859375q0.859375 0.25 1.328125 0.875q0.46875 0.609375 0.46875 1.4375q0 0.671875 -0.296875 1.25q-0.28125 0.578125 -0.703125 0.890625q-0.40625 0.3125 -1.03125 0.46875q-0.625 0.15625 -1.546875 0.15625l-3.640625 0zm1.265625 -5.53125l2.0625 0q0.84375 0 1.203125 -0.109375q0.484375 -0.140625 0.71875 -0.46875q0.25 -0.34375 0.25 -0.84375q0 -0.46875 -0.234375 -0.828125q-0.21875 -0.359375 -0.640625 -0.5q-0.421875 -0.140625 -1.453125 -0.140625l-1.90625 0l0 2.890625zm0 4.40625l2.375 0q0.609375 0 0.859375 -0.046875q0.4375 -0.078125 0.734375 -0.25q0.296875 -0.1875 0.484375 -0.53125q0.1875 -0.359375 0.1875 -0.8125q0 -0.53125 -0.28125 -0.921875q-0.265625 -0.40625 -0.75 -0.5625q-0.484375 -0.15625 -1.40625 -0.15625l-2.203125 0l0 3.28125zm7.51474 1.125l0 -9.546875l1.171875 0l0 9.546875l-1.171875 0zm2.539215 -3.453125q0 -1.921875 1.078125 -2.84375q0.890625 -0.765625 2.171875 -0.765625q1.421875 0 2.328125 0.9375q0.90625 0.921875 0.90625 2.578125q0 1.328125 -0.40625 2.09375q-0.390625 0.765625 -1.15625 1.1875q-0.765625 0.421875 -1.671875 0.421875q-1.453125 0 -2.359375 -0.921875q-0.890625 -0.9375 -0.890625 -2.6875zm1.203125 0q0 1.328125 0.578125 1.984375q0.59375 0.65625 1.46875 0.65625q0.875 0 1.453125 -0.65625q0.578125 -0.671875 0.578125 -2.03125q0 -1.28125 -0.59375 -1.9375q-0.578125 -0.65625 -1.4375 -0.65625q-0.875 0 -1.46875 0.65625q-0.578125 0.65625 -0.578125 1.984375zm11.162476 0.921875l1.15625 0.15625q-0.1875 1.1875 -0.96875 1.859375q-0.78125 0.671875 -1.921875 0.671875q-1.40625 0 -2.28125 -0.921875q-0.859375 -0.9375 -0.859375 -2.65625q0 -1.125 0.375 -1.96875q0.375 -0.84375 1.125 -1.25q0.765625 -0.421875 1.65625 -0.421875q1.125 0 1.84375 0.578125q0.71875 0.5625 0.921875 1.609375l-1.140625 0.171875q-0.171875 -0.703125 -0.59375 -1.046875q-0.40625 -0.359375 -0.984375 -0.359375q-0.890625 0 -1.453125 0.640625q-0.546875 0.640625 -0.546875 2.0q0 1.40625 0.53125 2.03125q0.546875 0.625 1.40625 0.625q0.6875 0 1.140625 -0.421875q0.46875 -0.421875 0.59375 -1.296875zm2.1640625 2.53125l0 -9.546875l1.171875 0l0 5.453125l2.765625 -2.8125l1.515625 0l-2.640625 2.5625l2.90625 4.34375l-1.4375 0l-2.28125 -3.53125l-0.828125 0.796875l0 2.734375l-1.171875 0zm10.03894 -2.515625l1.171875 -0.15625q0.203125 1.0 0.6875 1.4375q0.484375 0.4375 1.171875 0.4375q0.828125 0 1.390625 -0.578125q0.578125 -0.578125 0.578125 -1.421875q0 -0.796875 -0.53125 -1.3125q-0.515625 -0.53125 -1.328125 -0.53125q-0.34375 0 -0.828125 0.125l0.125 -1.03125q0.125 0.015625 0.1875 0.015625q0.75 0 1.34375 -0.390625q0.609375 -0.390625 0.609375 -1.203125q0 -0.640625 -0.4375 -1.0625q-0.4375 -0.421875 -1.125 -0.421875q-0.6875 0 -1.140625 0.4375q-0.453125 0.421875 -0.59375 1.28125l-1.171875 -0.21875q0.21875 -1.171875 0.984375 -1.8125q0.765625 -0.65625 1.890625 -0.65625q0.78125 0 1.4375 0.34375q0.65625 0.328125 1.0 0.90625q0.359375 0.578125 0.359375 1.234375q0 0.609375 -0.34375 1.125q-0.328125 0.5 -0.96875 0.796875q0.84375 0.203125 1.3125 0.828125q0.46875 0.609375 0.46875 1.53125q0 1.25 -0.921875 2.125q-0.90625 0.859375 -2.296875 0.859375q-1.25 0 -2.09375 -0.75q-0.828125 -0.75 -0.9375 -1.9375z" fill-rule="nonzero"/><path fill="#000000" fill-opacity="0.0" d="m547.06824 5.5433073l73.25983 0l0 35.559055l-73.25983 0z" fill-rule="evenodd"/><path fill="#000000" d="m557.037 27.343306l0 -9.546875l3.59375 0q1.09375 0 1.75 0.296875q0.65625 0.28125 1.03125 0.890625q0.375 0.609375 0.375 1.265625q0 0.609375 -0.34375 1.15625q-0.328125 0.53125 -0.984375 0.859375q0.859375 0.25 1.328125 0.875q0.46875 0.609375 0.46875 1.4375q0 0.671875 -0.296875 1.25q-0.28125 0.578125 -0.703125 0.890625q-0.40625 0.3125 -1.03125 0.46875q-0.625 0.15625 -1.546875 0.15625l-3.640625 0zm1.265625 -5.53125l2.0625 0q0.84375 0 1.203125 -0.109375q0.484375 -0.140625 0.71875 -0.46875q0.25 -0.34375 0.25 -0.84375q0 -0.46875 -0.234375 -0.828125q-0.21875 -0.359375 -0.640625 -0.5q-0.421875 -0.140625 -1.453125 -0.140625l-1.90625 0l0 2.890625zm0 4.40625l2.375 0q0.609375 0 0.859375 -0.046875q0.4375 -0.078125 0.734375 -0.25q0.296875 -0.1875 0.484375 -0.53125q0.1875 -0.359375 0.1875 -0.8125q0 -0.53125 -0.28125 -0.921875q-0.265625 -0.40625 -0.75 -0.5625q-0.484375 -0.15625 -1.40625 -0.15625l-2.203125 0l0 3.28125zm7.5147705 1.125l0 -9.546875l1.171875 0l0 9.546875l-1.171875 0zm2.5391846 -3.453125q0 -1.921875 1.078125 -2.84375q0.890625 -0.765625 2.171875 -0.765625q1.421875 0 2.328125 0.9375q0.90625 0.921875 0.90625 2.578125q0 1.328125 -0.40625 2.09375q-0.390625 0.765625 -1.15625 1.1875q-0.765625 0.421875 -1.671875 0.421875q-1.453125 0 -2.359375 -0.921875q-0.890625 -0.9375 -0.890625 -2.6875zm1.203125 0q0 1.328125 0.578125 1.984375q0.59375 0.65625 1.46875 0.65625q0.875 0 1.453125 -0.65625q0.578125 -0.671875 0.578125 -2.03125q0 -1.28125 -0.59375 -1.9375q-0.578125 -0.65625 -1.4375 -0.65625q-0.875 0 -1.46875 0.65625q-0.578125 0.65625 -0.578125 1.984375zm11.162476 0.921875l1.15625 0.15625q-0.1875 1.1875 -0.96875 1.859375q-0.78125 0.671875 -1.921875 0.671875q-1.40625 0 -2.28125 -0.921875q-0.859375 -0.9375 -0.859375 -2.65625q0 -1.125 0.375 -1.96875q0.375 -0.84375 1.125 -1.25q0.765625 -0.421875 1.65625 -0.421875q1.125 0 1.84375 0.578125q0.71875 0.5625 0.921875 1.609375l-1.140625 0.171875q-0.171875 -0.703125 -0.59375 -1.046875q-0.40625 -0.359375 -0.984375 -0.359375q-0.890625 0 -1.453125 0.640625q-0.546875 0.640625 -0.546875 2.0q0 1.40625 0.53125 2.03125q0.546875 0.625 1.40625 0.625q0.6875 0 1.140625 -0.421875q0.46875 -0.421875 0.59375 -1.296875zm2.1640625 2.53125l0 -9.546875l1.171875 0l0 5.453125l2.765625 -2.8125l1.515625 0l-2.640625 2.5625l2.90625 4.34375l-1.4375 0l-2.28125 -3.53125l-0.828125 0.796875l0 2.734375l-1.171875 0zm13.78894 0l0 -2.28125l-4.140625 0l0 -1.078125l4.34375 -6.1875l0.96875 0l0 6.1875l1.28125 0l0 1.078125l-1.28125 0l0 2.28125l-1.171875 0zm0 -3.359375l0 -4.296875l-2.984375 4.296875l2.984375 0z" fill-rule="nonzero"/></g></svg>